<?xml version="1.0" encoding="UTF-8"?>
<svg xmlns="http://www.w3.org/2000/svg" xmlns:xlink="http://www.w3.org/1999/xlink" xmlns:svgjs="http://svgjs.dev/svgjs" version="1.1" viewBox="0 0 360 360">
  <g viewBox="0 0 360 360">
    <g>
      <g>
        <g>
          <svg xmlns="http://www.w3.org/2000/svg" xmlns:xlink="http://www.w3.org/1999/xlink" viewBox="140 20 640 400" data-background-color="#ffbe79" preserveAspectRatio="xMidYMid meet" height="400" width="640">
            <rect width="640" height="400" x="0" y="0" opacity="1" fill="#ffbe79" data-fill-palette-color="background" id="background"></rect>
            <g id="tight-bounds" transform="matrix(1,0,0,1,148.57422074112307,28.57422074112307)">
              <svg viewBox="0 0 342.85155851775386 342.85155851775386" height="342.85155851775386" width="342.85155851775386">
                <g>
                  <svg></svg>
                </g>
                <g>
                  <svg viewBox="0 0 342.85155851775386 342.85155851775386" height="342.85155851775386" width="342.85155851775386">
                    <g>
                      <path d="M0 171.426c0-94.676 76.75-171.426 171.426-171.426 94.676 0 171.426 76.75 171.426 171.426 0 94.676-76.75 171.426-171.426 171.426-94.676 0-171.426-76.75-171.426-171.426zM171.426 339.999c93.101 0 168.573-75.473 168.573-168.573 0-93.101-75.473-168.573-168.573-168.574-93.101 0-168.573 75.473-168.574 168.574 0 93.101 75.473 168.573 168.574 168.573z" data-fill-palette-color="tertiary" fill="#374151" stroke="transparent"></path>
                      <ellipse rx="164.56874808852186" ry="164.56874808852186" cx="171.42577925887693" cy="171.42577925887693" fill="#374151" stroke="transparent" stroke-width="0" fill-opacity="1" data-fill-palette-color="tertiary"></ellipse>
                    </g>
                    <g transform="matrix(1,0,0,1,64.84655864529837,130.02222270973394)">
                      <svg viewBox="0 0 213.1584412271571 82.80711309828598" height="82.80711309828598" width="213.1584412271571">
                        <g>
                          <svg viewBox="0 0 213.1584412271571 82.80711309828598" height="82.80711309828598" width="213.1584412271571">
                            <g>
                              <svg viewBox="0 0 213.1584412271571 82.80711309828598" height="82.80711309828598" width="213.1584412271571">
                                <g transform="matrix(1,0,0,1,0,51.17811795135901)">
                                  <svg viewBox="0 0 213.1584412271571 31.628995146926975" height="31.628995146926975" width="213.1584412271571">
                                    <g id="textblocktransform">
                                      <svg viewBox="0 0 213.1584412271571 31.628995146926975" height="31.628995146926975" width="213.1584412271571" id="textblock">
                                        <g>
                                          <svg viewBox="0 0 213.1584412271571 31.628995146926975" height="31.628995146926975" width="213.1584412271571">
                                            <g transform="matrix(1,0,0,1,0,0)">
                                              <svg width="213.1584412271571" viewBox="0.699999988079071 -37.79999923706055 355.4700012207031 52.75" height="31.628995146926975" data-palette-color="#ffbe79">
                                                <path d="M17.75 0.95Q13.45 0.95 9.75-1.07 6.05-3.1 2.6-6.65L2.6-6.65Q2.5-6.75 2.35-6.75L2.35-6.75Q1.9-6.75 1.35-6.2L1.35-6.2 0.7-6.9 7.65-13.45 8.3-12.75Q8-12.5 7.75-12.05 7.5-11.6 7.65-11.4L7.65-11.4Q12.3-5.5 17.8-5.5L17.8-5.5Q19.7-5.5 21.23-6.25 22.75-7 23.6-8.18 24.45-9.35 24.45-10.6L24.45-10.6Q24.45-13.55 19.3-15.45L19.3-15.45 13.15-17.75Q9.45-19.1 7.38-21.45 5.3-23.8 5.3-27.1L5.3-27.1Q5.3-30.35 6.83-32.77 8.35-35.2 11.15-36.5 13.95-37.8 17.65-37.8L17.65-37.8Q21.15-37.8 23.53-36.73 25.9-35.65 28.6-33.45L28.6-33.45Q28.65-33.4 28.8-33.4L28.8-33.4Q29.05-33.4 29.38-33.58 29.7-33.75 29.9-33.95L29.9-33.95 30.55-33.3 24.35-27.2 23.7-27.9Q23.95-28.15 24.08-28.48 24.2-28.8 24-28.95L24-28.95Q20.75-31.55 17.55-31.55L17.55-31.55Q15-31.55 13.5-30.38 12-29.2 12-27.4L12-27.4Q12-25.8 12.83-24.95 13.65-24.1 15.35-23.5L15.35-23.5 21.4-21.3Q24.55-20.15 26.65-18.88 28.75-17.6 30-15.53 31.25-13.45 31.25-10.35L31.25-10.35Q31.25-7.35 29.68-4.78 28.1-2.2 25.03-0.63 21.95 0.95 17.75 0.95L17.75 0.95ZM62.5-23L62.5-22.05Q62.15-22.05 61.77-21.9 61.4-21.75 61.4-21.5L61.4-21.5 61.4-1.5Q61.4-1.25 61.77-1.1 62.15-0.95 62.5-0.95L62.5-0.95 62.5 0 55.1 0 55.1-2.75Q51.95 0.65 47.15 0.65L47.15 0.65Q43.5 0.65 40.72-0.83 37.95-2.3 36.42-5.05 34.9-7.8 34.9-11.45L34.9-11.45Q34.9-15 36.57-17.78 38.25-20.55 41.05-22.08 43.85-23.6 47.15-23.6L47.15-23.6Q51.95-23.6 55.1-19.9L55.1-19.9 55.1-23 62.5-23ZM47.9-4.65Q49.95-4.65 51.57-5.58 53.2-6.5 54.1-8.03 55-9.55 55-11.3L55-11.3Q55-14.3 53.02-16.25 51.05-18.2 47.9-18.2L47.9-18.2Q44.85-18.2 42.87-16.3 40.9-14.4 40.9-11.45L40.9-11.45Q40.9-8.35 42.92-6.5 44.95-4.65 47.9-4.65L47.9-4.65ZM93.5-23L93.5-22.05Q92.5-22.05 92.25-21.65L92.25-21.65 83.2-2.25Q83.05-1.9 83.05-1.65L83.05-1.65Q83.05-1.25 83.37-1.1 83.7-0.95 84.05-0.95L84.05-0.95 84.05 0 73.95 0 73.95-0.95Q74.3-0.95 74.65-1.13 75-1.3 75-1.75L75-1.75Q75-2 74.84-2.3L74.84-2.3 66.5-21.6Q66.34-22.05 65.3-22.05L65.3-22.05 65.3-23 74-23 74-22.05Q73.39-22.05 73.22-21.78 73.05-21.5 73.2-21.15L73.2-21.15 79.34-6.8 85.84-21.2Q85.9-21.25 85.9-21.35L85.9-21.35Q85.9-21.6 85.52-21.83 85.15-22.05 84.59-22.05L84.59-22.05 84.59-23 93.5-23ZM107.94-24.05Q111.79-24.05 114.59-22.38 117.39-20.7 118.84-17.85 120.29-15 120.29-11.55L120.29-11.55Q120.29-10.5 120.14-9.45L120.14-9.45 101.84-9.45Q102.04-7.05 103.94-5.7 105.84-4.35 108.49-4.35L108.49-4.35Q110.29-4.35 111.52-4.85 112.74-5.35 113.69-6.35L113.69-6.35Q113.79-6.55 113.79-6.6L113.79-6.6Q113.79-6.8 113.64-7.03 113.49-7.25 113.34-7.35L113.34-7.35 113.94-8.1 119.49-3.75 118.94-3Q118.19-3.45 117.89-3.1L117.89-3.1Q114.39 1.1 108.49 1.1L108.49 1.1Q104.69 1.1 101.79-0.58 98.89-2.25 97.32-5.08 95.74-7.9 95.74-11.35L95.74-11.35Q95.74-15 97.29-17.9 98.84-20.8 101.62-22.43 104.39-24.05 107.94-24.05L107.94-24.05ZM101.89-14.1L114.29-14.1Q114.09-16.15 112.22-17.57 110.34-19 107.99-19L107.99-19Q105.64-19 103.94-17.57 102.24-16.15 101.89-14.1L101.89-14.1ZM181.64-36L181.64-1.5Q181.64-1.25 182.01-1.1 182.39-0.95 182.79-0.95L182.79-0.95 182.79 0 174.04 0 174.04-0.95Q174.44-0.95 174.81-1.1 175.19-1.25 175.19-1.5L175.19-1.5 175.19-30.15 160.54 1.9 145.94-30.25 145.94-1.5Q145.94-1.25 146.31-1.1 146.69-0.95 147.09-0.95L147.09-0.95 147.09 0 138.29 0 138.29-0.95Q138.69-0.95 139.06-1.1 139.44-1.25 139.44-1.5L139.44-1.5 139.44-36Q139.44-36.25 139.06-36.4 138.69-36.55 138.34-36.55L138.34-36.55 138.34-37.5 151.24-37.5 151.24-36.55Q150.64-36.55 150.46-36.27 150.29-36 150.44-35.65L150.44-35.65 160.59-12.05 170.89-35.65Q170.99-35.95 170.59-36.25 170.19-36.55 169.59-36.55L169.59-36.55 169.59-37.5 182.74-37.5 182.74-36.55Q182.39-36.55 182.01-36.4 181.64-36.25 181.64-36L181.64-36ZM214.64-23L214.64-22.05Q214.29-22.05 213.91-21.9 213.54-21.75 213.54-21.5L213.54-21.5 213.54-1.5Q213.54-1.25 213.91-1.1 214.29-0.95 214.64-0.95L214.64-0.95 214.64 0 207.24 0 207.24-2.75Q204.09 0.65 199.29 0.65L199.29 0.65Q195.64 0.65 192.86-0.83 190.09-2.3 188.56-5.05 187.04-7.8 187.04-11.45L187.04-11.45Q187.04-15 188.71-17.78 190.39-20.55 193.19-22.08 195.99-23.6 199.29-23.6L199.29-23.6Q204.09-23.6 207.24-19.9L207.24-19.9 207.24-23 214.64-23ZM200.04-4.65Q202.09-4.65 203.71-5.58 205.34-6.5 206.24-8.03 207.14-9.55 207.14-11.3L207.14-11.3Q207.14-14.3 205.16-16.25 203.19-18.2 200.04-18.2L200.04-18.2Q196.99-18.2 195.01-16.3 193.04-14.4 193.04-11.45L193.04-11.45Q193.04-8.35 195.06-6.5 197.09-4.65 200.04-4.65L200.04-4.65ZM244.03-13.45L244.03-1.5Q244.03-1.25 244.41-1.1 244.78-0.95 245.18-0.95L245.18-0.95 245.18 0 236.38 0 236.38-0.95Q236.78-0.95 237.16-1.1 237.53-1.25 237.53-1.5L237.53-1.5 237.53-11.9Q237.53-14.45 236.28-16.28 235.03-18.1 232.53-18.1L232.53-18.1Q229.98-18.1 228.41-16.4 226.83-14.7 226.83-11.5L226.83-11.5 226.83-1.5Q226.83-1.25 227.21-1.1 227.58-0.95 227.98-0.95L227.98-0.95 227.98 0 219.23 0 219.23-0.95Q219.63-0.95 220.01-1.1 220.38-1.25 220.38-1.5L220.38-1.5 220.38-21.5Q220.38-21.75 220.01-21.9 219.63-22.05 219.28-22.05L219.28-22.05 219.28-23 226.83-23 226.83-20.95Q228.13-22.15 229.91-22.83 231.68-23.5 233.53-23.5L233.53-23.5Q236.73-23.5 239.11-22.15 241.48-20.8 242.76-18.53 244.03-16.25 244.03-13.45L244.03-13.45ZM276.83-23L276.83-22.05Q276.48-22.05 276.11-21.9 275.73-21.75 275.73-21.5L275.73-21.5 275.73-1.5Q275.73-1.25 276.11-1.1 276.48-0.95 276.83-0.95L276.83-0.95 276.83 0 269.43 0 269.43-2.75Q266.28 0.65 261.48 0.65L261.48 0.65Q257.83 0.65 255.06-0.83 252.28-2.3 250.76-5.05 249.23-7.8 249.23-11.45L249.23-11.45Q249.23-15 250.91-17.78 252.58-20.55 255.38-22.08 258.18-23.6 261.48-23.6L261.48-23.6Q266.28-23.6 269.43-19.9L269.43-19.9 269.43-23 276.83-23ZM262.23-4.65Q264.28-4.65 265.91-5.58 267.53-6.5 268.43-8.03 269.33-9.55 269.33-11.3L269.33-11.3Q269.33-14.3 267.36-16.25 265.38-18.2 262.23-18.2L262.23-18.2Q259.18-18.2 257.21-16.3 255.23-14.4 255.23-11.45L255.23-11.45Q255.23-8.35 257.26-6.5 259.28-4.65 262.23-4.65L262.23-4.65ZM300.83-23L308.18-23 308.18-22.05Q307.83-22.05 307.45-21.9 307.08-21.75 307.08-21.5L307.08-21.5 307.13 1.85Q307.13 8.1 303.53 11.53 299.93 14.95 293.73 14.95L293.73 14.95Q291.18 14.95 288.33 13.53 285.48 12.1 283.08 9.3L283.08 9.3Q283.03 9.15 282.78 9.15L282.78 9.15Q282.38 9.15 281.93 9.5L281.93 9.5 281.38 8.75 287.63 3.8 288.23 4.55Q287.98 4.75 287.75 5.1 287.53 5.45 287.68 5.7L287.68 5.7Q288.93 7.45 290.38 8.3 291.83 9.15 293.88 9.15L293.88 9.15Q297.13 9.15 298.98 7.58 300.83 6 300.83 2.8L300.83 2.8 300.83-1.75Q297.68 0.7 293.58 0.7L293.58 0.7Q289.88 0.7 287-0.83 284.13-2.35 282.5-5.13 280.88-7.9 280.88-11.5L280.88-11.5Q280.88-15.1 282.58-17.82 284.28-20.55 287.18-22.03 290.08-23.5 293.58-23.5L293.58-23.5Q297.78-23.5 300.83-21.2L300.83-21.2 300.83-23ZM293.88-4.65Q297.28-4.65 299.13-6.48 300.98-8.3 300.98-11.3L300.98-11.3Q300.98-14.3 298.98-16.25 296.98-18.2 293.88-18.2L293.88-18.2Q290.88-18.2 288.9-16.3 286.93-14.4 286.93-11.4L286.93-11.4Q286.93-8.3 288.93-6.48 290.93-4.65 293.88-4.65L293.88-4.65ZM324.63-24.05Q328.48-24.05 331.28-22.38 334.08-20.7 335.53-17.85 336.98-15 336.98-11.55L336.98-11.55Q336.98-10.5 336.83-9.45L336.83-9.45 318.53-9.45Q318.73-7.05 320.63-5.7 322.53-4.35 325.18-4.35L325.18-4.35Q326.98-4.35 328.2-4.85 329.43-5.35 330.38-6.35L330.38-6.35Q330.48-6.55 330.48-6.6L330.48-6.6Q330.48-6.8 330.33-7.03 330.18-7.25 330.03-7.35L330.03-7.35 330.63-8.1 336.18-3.75 335.63-3Q334.88-3.45 334.58-3.1L334.58-3.1Q331.08 1.1 325.18 1.1L325.18 1.1Q321.38 1.1 318.48-0.58 315.58-2.25 314-5.08 312.43-7.9 312.43-11.35L312.43-11.35Q312.43-15 313.98-17.9 315.53-20.8 318.3-22.43 321.08-24.05 324.63-24.05L324.63-24.05ZM318.58-14.1L330.98-14.1Q330.78-16.15 328.9-17.57 327.03-19 324.68-19L324.68-19Q322.33-19 320.63-17.57 318.93-16.15 318.58-14.1L318.58-14.1ZM355.22-24.5L356.17-24.5 356.17-16.45 355.22-16.45Q355.22-16.8 355.07-17.25 354.92-17.7 354.67-17.75L354.67-17.75 354.32-17.75Q352.77-17.75 351.2-16.88 349.62-16 348.6-14.58 347.57-13.15 347.57-11.55L347.57-11.55 347.57-1.5Q347.57-1.25 347.95-1.1 348.32-0.95 348.67-0.95L348.67-0.95 348.67 0 340.27 0 340.27-0.95Q340.62-0.95 341-1.1 341.37-1.25 341.37-1.5L341.37-1.5 341.37-21.5Q341.37-21.75 341-21.9 340.62-22.05 340.27-22.05L340.27-22.05 340.27-23 347.57-23 347.57-20.85Q348.92-22.1 350.82-22.85 352.72-23.6 354.62-23.6L354.62-23.6 354.67-23.6 354.72-23.6Q354.97-23.6 355.1-23.9 355.22-24.2 355.22-24.5L355.22-24.5Z" opacity="1" transform="matrix(1,0,0,1,0,0)" fill="#ffbe79" class="wordmark-text-0" data-fill-palette-color="quaternary" id="text-0"></path>
                                              </svg>
                                            </g>
                                          </svg>
                                        </g>
                                      </svg>
                                    </g>
                                  </svg>
                                </g>
                                <g transform="matrix(1,0,0,1,84.72685042664952,0)">
                                  <svg viewBox="0 0 43.704740373858066 43.71127129305308" height="43.71127129305308" width="43.704740373858066">
                                    <g>
                                      <svg xmlns="http://www.w3.org/2000/svg" xmlns:xlink="http://www.w3.org/1999/xlink" version="1.1" x="0" y="0" viewBox="9.998313903808594 9.983749389648438 80.0042953491211 80.01625061035156" style="enable-background:new 0 0 100 100;" xml:space="preserve" height="43.71127129305308" width="43.704740373858066" class="icon-icon-0" data-fill-palette-color="quaternary" id="icon-0">
                                        <path d="M55.65 38.394C59.302 38.394 62.273 35.422 62.273 31.769S59.303 25.144 55.65 25.144 49.024 28.115 49.024 31.769 51.996 38.394 55.65 38.394M55.65 27.144C58.2 27.144 60.273 29.219 60.273 31.769S58.2 36.394 55.65 36.394 51.024 34.318 51.024 31.769 53.1 27.144 55.65 27.144" fill="#ffbe79" data-fill-palette-color="quaternary"></path>
                                        <path d="M60.274 71.22C60.274 67.188 56.992 63.905 52.957 63.905 48.923 63.904 45.641 67.187 45.641 71.221S48.923 78.537 52.957 78.537C56.992 78.537 60.274 75.255 60.274 71.221M47.641 71.22C47.64 68.29 50.025 65.905 52.957 65.905S58.274 68.29 58.274 71.221 55.89 76.537 52.957 76.537 47.641 74.152 47.641 71.221" fill="#ffbe79" data-fill-palette-color="quaternary"></path>
                                        <path d="M44.382 84.203C44.382 81.007 41.782 78.406 38.585 78.406S32.788 81.006 32.788 84.203 35.388 90 38.585 90 44.382 87.4 44.382 84.203M34.788 84.203C34.788 82.11 36.491 80.406 38.585 80.406S42.382 82.11 42.382 84.203 40.679 88 38.585 88 34.788 86.297 34.788 84.203" fill="#ffbe79" data-fill-palette-color="quaternary"></path>
                                        <path d="M86.247 60.914H80.275V42.574C80.275 37.948 76.513 34.186 71.887 34.186S63.498 37.948 63.498 42.574V50C63.498 53.522 60.632 56.389 57.109 56.389S50.721 53.522 50.721 50V48.222C50.72 43.596 46.958 39.833 42.332 39.833S33.943 43.596 33.943 48.222V60.466C33.943 63.988 31.078 66.854 27.556 66.854S21.167 63.988 21.167 60.466V48.872H26.58A3.757 3.757 0 0 0 30.333 45.12V24.151A3.75 3.75 0 0 0 27.991 20.68V11A1 1 0 0 0 26.991 10H13.341A1 1 0 0 0 12.342 11V20.679A3.755 3.755 0 0 0 10 24.15V45.12A3.757 3.757 0 0 0 13.753 48.872H19.167V60.466C19.167 65.092 22.93 68.854 27.556 68.854S35.943 65.092 35.943 60.466V48.222C35.943 44.699 38.81 41.833 42.332 41.833S48.721 44.699 48.721 48.222V50C48.72 54.626 52.483 58.389 57.109 58.389S65.498 54.626 65.498 50V42.574C65.498 39.052 68.364 36.186 71.887 36.186S78.275 39.052 78.275 42.574V60.914H72.304A3.757 3.757 0 0 0 68.55 64.667V75.849C68.55 77.47 69.59 78.843 71.035 79.365V89A1 1 0 0 0 72.035 90H86.515A1 1 0 0 0 87.516 89V79.365C88.96 78.843 90 77.471 90 75.85V64.667A3.757 3.757 0 0 0 86.247 60.914M25.991 12V20.398H14.341V12zM12 45.12V24.15C12 23.185 12.786 22.398 13.753 22.398H26.58C27.547 22.398 28.333 23.185 28.333 24.151V45.12C28.333 46.086 27.547 46.872 26.58 46.872H13.753A1.755 1.755 0 0 1 12 45.12M73.035 88V79.602H85.515V88zM88 75.849C88 76.815 87.214 77.602 86.247 77.602H72.304A1.755 1.755 0 0 1 70.55 75.849V64.667C70.55 63.7 71.337 62.914 72.304 62.914H86.247C87.214 62.914 88 63.7 88 64.667z" fill="#ffbe79" data-fill-palette-color="quaternary"></path>
                                        <path d="M51.458 18.545A1 1 0 0 0 50.938 17.667L48.739 16.466A9.56 9.56 0 0 1 44.938 12.664L43.735 10.466C43.385 9.823 42.331 9.823 41.981 10.466L40.78 12.664A9.56 9.56 0 0 1 36.98 16.466L34.78 17.668A0.998 0.998 0 0 0 34.78 19.422L36.98 20.624A9.55 9.55 0 0 1 40.779 24.424L41.981 26.624A0.998 0.998 0 0 0 43.735 26.623L44.938 24.425A9.55 9.55 0 0 1 48.738 20.625L50.938 19.423A1 1 0 0 0 51.458 18.545M47.779 18.87A11.54 11.54 0 0 0 43.184 23.466L42.858 24.06 42.533 23.466A11.54 11.54 0 0 0 37.938 18.87L37.344 18.545 37.938 18.22A11.55 11.55 0 0 0 42.533 13.623L42.858 13.029 43.184 13.623A11.55 11.55 0 0 0 47.779 18.221L48.373 18.545z" fill="#ffbe79" data-fill-palette-color="quaternary"></path>
                                        <path d="M10.52 78.414L12.719 79.618A9.53 9.53 0 0 1 16.519 83.418L17.723 85.616A0.998 0.998 0 0 0 19.476 85.617L20.68 83.418A9.53 9.53 0 0 1 24.48 79.618L26.68 78.413A1 1 0 0 0 26.678 76.66L24.479 75.457A9.53 9.53 0 0 1 20.68 71.657L19.476 69.457C19.126 68.818 18.07 68.816 17.722 69.459L16.519 71.657A9.53 9.53 0 0 1 12.719 75.458L10.52 76.66A0.998 0.998 0 0 0 10.52 78.414M13.678 77.213A11.53 11.53 0 0 0 18.273 72.616L18.6 72.022 18.924 72.616A11.53 11.53 0 0 0 23.52 77.212L24.114 77.537 23.521 77.862A11.54 11.54 0 0 0 18.925 82.458L18.599 83.053 18.274 82.459A11.54 11.54 0 0 0 13.68 77.863L13.084 77.537z" fill="#ffbe79" data-fill-palette-color="quaternary"></path>
                                        <path d="M89.48 19.745L86.694 18.223A12.35 12.35 0 0 1 81.777 13.305L80.255 10.52C79.905 9.878 78.85 9.878 78.5 10.52L76.979 13.304A12.35 12.35 0 0 1 72.059 18.223L69.276 19.745A0.998 0.998 0 0 0 69.275 21.5L72.06 23.021A12.37 12.37 0 0 1 76.979 27.941L78.5 30.724A0.998 0.998 0 0 0 80.255 30.725L81.778 27.94A12.35 12.35 0 0 1 86.695 23.021L89.48 21.5A0.998 0.998 0 0 0 89.48 19.745M85.734 21.268A14.34 14.34 0 0 0 80.023 26.98L79.378 28.161 78.732 26.981A14.34 14.34 0 0 0 73.02 21.268L71.839 20.622 73.019 19.978A14.34 14.34 0 0 0 78.732 14.264L79.378 13.084 80.023 14.264A14.3 14.3 0 0 0 85.736 19.977L86.916 20.622z" fill="#ffbe79" data-fill-palette-color="quaternary"></path>
                                      </svg>
                                    </g>
                                  </svg>
                                </g>
                                <g></g>
                              </svg>
                            </g>
                          </svg>
                        </g>
                      </svg>
                    </g>
                  </svg>
                </g>
                <defs></defs>
              </svg>
              <rect width="342.85155851775386" height="342.85155851775386" fill="none" stroke="none" visibility="hidden"></rect>
            </g>
          </svg>
        </g>
      </g>
    </g>
  </g>
  <rect width="225.140502610966" height="43.628998041775446" x="208.429748694517" y="204.77454920039162" rx="2.5" ry="2.5" fill="transparent" class="logo-element-hover-target"></rect>
  <rect width="55.70471605744126" height="55.71124347258484" x="293.1476419712793" y="153.59645275783288" rx="2.5" ry="2.5" fill="transparent" class="logo-element-hover-target"></rect>
</svg>
