<?xml version="1.0" encoding="UTF-8"?>
<svg xmlns="http://www.w3.org/2000/svg" xmlns:xlink="http://www.w3.org/1999/xlink" xmlns:svgjs="http://svgjs.dev/svgjs" version="1.1" viewBox="0 0 156 160">
  <g viewBox="0 0 640 400">
    <g>
      <g>
        <g>
          <svg xmlns="http://www.w3.org/2000/svg" xmlns:xlink="http://www.w3.org/1999/xlink" viewBox="114 120 640 400" data-background-color="#e8772e" preserveAspectRatio="xMidYMid meet" height="400" width="640">
            <rect width="640" height="400" x="0" y="0" opacity="1" fill="#e8772e" data-fill-palette-color="background" id="background"></rect>
            <g id="tight-bounds" transform="matrix(1,0,0,1,122.24000000000001,129.9967144567967)">
              <svg viewBox="0 0 395.52 140.0065710864066" height="140.0065710864066" width="395.52">
                <g>
                  <svg viewBox="0 0 690.5211002384624 244.43135999999998" height="140.0065710864066" width="395.52">
                    <g transform="matrix(1,0,0,1,295.00110023846236,79.37376448257139)">
                      <svg viewBox="0 0 395.52 85.6838310348572" height="85.6838310348572" width="395.52">
                        <g id="textblocktransform">
                          <svg viewBox="0 0 395.52 85.6838310348572" height="85.6838310348572" width="395.52" id="textblock">
                            <g>
                              <svg viewBox="0 0 395.52 85.6838310348572" height="85.6838310348572" width="395.52">
                                <g transform="matrix(1,0,0,1,0,0)">
                                  <svg width="395.52" viewBox="1.7599999904632568 -37.15999984741211 224.8000030517578 48.709999084472656" height="85.6838310348572" data-palette-color="#ffffff">
                                    <path d="M7.2-25.34L7.2-25.34Q7.2-23.97 7.76-22.89 8.33-21.8 9.28-20.91 10.23-20.02 11.51-19.27 12.79-18.53 14.23-17.83 15.67-17.14 17.2-16.47 18.73-15.8 20.17-15.05 21.61-14.31 22.89-13.44 24.17-12.57 25.12-11.51 26.07-10.45 26.64-9.14 27.2-7.84 27.2-6.2L27.2-6.2Q27.2-3.22 26.07-1.04 24.95 1.15 23.07 2.58 21.19 4 18.7 4.7 16.21 5.4 13.5 5.4L13.5 5.4Q11.11 5.4 8.98 4.77 6.86 4.15 5.25 3.04 3.64 1.93 2.7 0.38 1.76-1.17 1.76-3L1.76-3Q1.76-4.61 2.26-5.75 2.76-6.88 3.36-7.62 3.96-8.35 4.49-8.69 5.03-9.03 5.1-9.06L5.1-9.06 5.64-7.91Q5.59-7.89 5.18-7.6 4.76-7.32 4.28-6.74 3.81-6.15 3.41-5.24 3-4.32 3-3L3-3Q3-1.68 3.5-0.65 4 0.39 4.85 1.17 5.69 1.95 6.77 2.51 7.86 3.08 9.03 3.43 10.21 3.78 11.38 3.94 12.55 4.1 13.55 4.1L13.55 4.1Q16.14 4.1 18.24 3.45 20.34 2.81 21.81 1.67 23.29 0.54 24.1-0.96 24.9-2.47 24.9-4.2L24.9-4.2Q24.9-6.15 24.07-7.57 23.24-8.98 21.88-10.07 20.51-11.16 18.76-12.02 17.02-12.89 15.2-13.72 13.38-14.55 11.63-15.47 9.89-16.38 8.52-17.58 7.15-18.77 6.32-20.35 5.49-21.92 5.49-24.1L5.49-24.1Q5.49-26.51 6.31-28.52 7.13-30.52 8.56-31.97 9.99-33.42 11.91-34.22 13.84-35.01 16.09-35.01L16.09-35.01Q18.36-35.01 20.07-34.48 21.78-33.96 22.94-33.02 24.1-32.08 24.67-30.76 25.24-29.44 25.24-27.86L25.24-27.86Q25.24-26.56 24.94-25.33 24.63-24.1 24.27-23.12 23.9-22.14 23.58-21.53 23.27-20.92 23.24-20.85L23.24-20.85 22.14-21.46Q22.14-21.48 22.42-22.05 22.71-22.61 23.05-23.51 23.39-24.41 23.67-25.55 23.95-26.68 23.95-27.86L23.95-27.86Q23.95-29.17 23.47-30.26 23-31.35 22.02-32.1 21.04-32.86 19.56-33.28 18.07-33.69 16.04-33.69L16.04-33.69Q14.16-33.69 12.55-33.07 10.94-32.45 9.75-31.32 8.57-30.2 7.89-28.67 7.2-27.15 7.2-25.34ZM49.58-11.94L50.53-11.69Q49.53-8.98 48.72-7.15 47.9-5.32 47.13-4.2 46.36-3.08 45.6-2.59 44.85-2.1 43.94-2.1L43.94-2.1Q42.84-2.1 42.06-2.87 41.28-3.64 41.09-5.25L41.09-5.25Q40.31-3.56 39.06-2.5 37.81-1.44 35.94-1.44L35.94-1.44Q34.93-1.44 34.02-1.81 33.1-2.17 32.39-2.94 31.69-3.71 31.26-4.88 30.83-6.05 30.83-7.64L30.83-7.64Q30.83-9.25 31.24-10.67 31.64-12.08 32.3-13.27 32.96-14.45 33.82-15.38 34.69-16.31 35.62-16.94 36.55-17.58 37.47-17.92 38.4-18.26 39.18-18.26L39.18-18.26Q39.87-18.26 40.5-18.09 41.14-17.92 41.64-17.54 42.14-17.16 42.44-16.53 42.75-15.89 42.75-14.94L42.75-14.94Q42.75-13.82 42.32-12.99 41.89-12.16 41.29-11.6 40.7-11.04 40.07-10.69 39.45-10.35 39.08-10.21L39.08-10.21 38.79-11.16Q38.86-11.16 39.34-11.35 39.82-11.55 40.34-12 40.87-12.45 41.31-13.16 41.75-13.87 41.75-14.89L41.75-14.89Q41.75-16.06 41.09-16.69 40.43-17.31 39.4-17.31L39.4-17.31Q38.62-17.31 37.57-16.75 36.52-16.19 35.56-14.99 34.59-13.79 33.92-11.96 33.25-10.13 33.25-7.59L33.25-7.59Q33.25-5.08 34.14-3.76 35.03-2.44 36.55-2.44L36.55-2.44Q37.3-2.44 38-2.87 38.69-3.3 39.28-4 39.87-4.71 40.33-5.65 40.79-6.59 41.14-7.59L41.14-7.59Q41.14-8.37 41.32-9.44 41.5-10.5 41.89-11.6L41.89-11.6 43.38-11.11Q43.26-10.79 43.14-10.28 43.02-9.77 42.91-9.16 42.8-8.54 42.72-7.9 42.65-7.25 42.65-6.64L42.65-6.64Q42.65-4.74 43.03-4.02 43.41-3.3 44.33-3.3L44.33-3.3Q44.87-3.3 45.4-3.69 45.92-4.08 46.53-5.05 47.14-6.03 47.87-7.7 48.61-9.38 49.58-11.94L49.58-11.94ZM65.84-11.94L66.79-11.69Q66.04-9.89 65.36-8.59 64.69-7.3 64.03-6.46 63.37-5.62 62.68-5.21 61.98-4.81 61.18-4.81L61.18-4.81Q60.08-4.81 59.31-5.51 58.54-6.2 58.39-7.25L58.39-7.25Q57.71-5.66 56.95-4.41 56.2-3.15 55.44-2.27 54.68-1.39 53.97-0.92 53.27-0.44 52.73-0.44L52.73-0.44Q52.29-0.44 51.64-0.81 51-1.17 50.41-2.03 49.82-2.88 49.41-4.28 48.99-5.69 48.99-7.74L48.99-7.74Q48.99-9.08 49.18-10.22 49.36-11.35 49.58-12.18L49.58-12.18Q49.85-13.16 50.19-13.94L50.19-13.94 51.14-13.84Q51.02-12.79 50.98-11.8 50.95-10.82 50.95-9.91L50.95-9.91Q50.95-7.89 51.14-6.3 51.34-4.71 51.62-3.63 51.9-2.54 52.24-1.97 52.58-1.39 52.88-1.39L52.88-1.39Q53.22-1.39 53.83-1.94 54.44-2.49 55.17-3.47 55.9-4.44 56.66-5.76 57.42-7.08 58.03-8.59L58.03-8.59Q57.95-9.06 57.87-9.73 57.78-10.4 57.78-10.89L57.78-10.89Q57.78-12.5 58.06-13.48 58.34-14.45 58.72-14.97 59.1-15.48 59.49-15.64 59.88-15.8 60.08-15.8L60.08-15.8Q60.74-15.8 60.74-14.79L60.74-14.79Q60.74-14.28 60.6-13.55 60.47-12.82 60.26-12.01 60.05-11.21 59.79-10.4 59.52-9.59 59.22-8.91L59.22-8.91Q59.22-8.06 59.41-7.48 59.59-6.91 59.89-6.56 60.2-6.2 60.59-6.05 60.98-5.91 61.4-5.91L61.4-5.91Q62.45-5.91 63.52-7.39 64.59-8.86 65.84-11.94L65.84-11.94ZM71.18-0.34L71.18-0.34Q69.94-0.34 68.79-0.78 67.64-1.22 66.78-2.11 65.91-3 65.4-4.35 64.89-5.69 64.89-7.5L64.89-7.5Q64.89-9.69 65.52-11.41 66.15-13.13 67.14-14.32 68.13-15.5 69.35-16.13 70.57-16.75 71.75-16.75L71.75-16.75Q73.26-16.75 74.15-15.75 75.04-14.75 75.04-13.16L75.04-13.16Q75.04-11.79 74.53-10.68 74.02-9.57 73.17-8.78 72.33-7.98 71.24-7.54 70.16-7.1 68.99-7.1L68.99-7.1Q68.43-7.1 67.92-7.17 67.42-7.23 67.03-7.3L67.03-7.3Q67.18-5.79 67.62-4.69 68.06-3.59 68.72-2.88 69.38-2.17 70.2-1.83 71.01-1.49 71.89-1.49L71.89-1.49Q72.99-1.49 73.92-2.03 74.85-2.56 75.63-3.43 76.41-4.3 77.06-5.42 77.7-6.54 78.22-7.7 78.73-8.86 79.13-9.97 79.53-11.08 79.85-11.94L79.85-11.94 80.8-11.69Q80.49-10.89 80.06-9.74 79.63-8.59 79.07-7.34 78.51-6.08 77.75-4.82 76.99-3.56 76.04-2.58 75.09-1.59 73.88-0.96 72.67-0.34 71.18-0.34ZM71.79-15.8L71.79-15.8Q70.89-15.8 70.02-15.22 69.16-14.65 68.47-13.65 67.79-12.65 67.36-11.28 66.94-9.91 66.94-8.35L66.94-8.35Q67.25-8.23 67.83-8.14 68.4-8.06 69.23-8.06L69.23-8.06Q70.11-8.06 70.98-8.44 71.84-8.81 72.54-9.48 73.23-10.16 73.66-11.08 74.09-12.01 74.09-13.11L74.09-13.11Q74.09-13.65 73.94-14.14 73.8-14.62 73.5-14.99 73.21-15.36 72.78-15.58 72.36-15.8 71.79-15.8ZM123.28 5.54L122.89 6.45Q122.86 6.45 122.12 6.34 121.37 6.23 120.26 5.75 119.15 5.27 117.87 4.33 116.59 3.39 115.49 1.73 114.39 0.07 113.66-2.43 112.93-4.93 112.93-8.5L112.93-8.5Q112.93-9.84 113.07-11.71 113.22-13.57 113.48-15.7 113.73-17.82 114.04-20.09 114.34-22.36 114.67-24.51 115-26.66 115.31-28.59 115.61-30.52 115.83-31.96L115.83-31.96Q115.54-30.79 115.19-29.41 114.83-28.03 114.44-26.5 114.05-24.98 113.65-23.36 113.24-21.75 112.83-20.14L112.83-20.14Q112.41-18.48 111.9-16.69 111.39-14.89 110.75-13.15 110.12-11.4 109.36-9.83 108.61-8.25 107.68-7.06 106.75-5.86 105.68-5.15 104.6-4.44 103.33-4.44L103.33-4.44Q102.62-4.44 101.99-4.71 101.35-4.98 100.88-5.63 100.4-6.27 100.12-7.36 99.84-8.45 99.84-10.11L99.84-10.11Q99.84-11.08 99.93-12.49 100.01-13.89 100.15-15.56 100.28-17.24 100.46-19.12 100.65-21 100.84-22.91 101.04-24.83 101.23-26.71 101.43-28.59 101.6-30.3L101.6-30.3Q100.96-27.71 100.09-23.85 99.21-20 98.13-15.21L98.13-15.21Q97.23-11.18 96.24-8.07 95.25-4.96 94.29-2.62 93.32-0.29 92.44 1.31 91.56 2.91 90.89 3.89 90.22 4.88 89.81 5.33 89.39 5.79 89.39 5.81L89.39 5.81 88.54 5.35Q88.54 5.32 88.96 4.58 89.39 3.83 90.08 2.49 90.76 1.15 91.64-0.74 92.52-2.64 93.44-4.93 94.37-7.23 95.3-9.89 96.23-12.55 96.98-15.45L96.98-15.45Q98.08-19.56 98.95-23.05 99.82-26.54 100.43-29.09 101.04-31.64 101.37-33.08 101.7-34.52 101.7-34.55L101.7-34.55 102.65-34.45Q102.65-34.4 102.64-33.3 102.62-32.2 102.61-30.44 102.6-28.69 102.59-26.48 102.58-24.27 102.56-22.02 102.55-19.78 102.54-17.71 102.53-15.65 102.53-14.16L102.53-14.16Q102.53-12.45 102.66-11.05 102.8-9.64 103.1-8.65 103.41-7.67 103.87-7.13 104.33-6.59 104.99-6.59L104.99-6.59Q105.53-6.59 106.27-7.31 107.02-8.03 107.91-9.66 108.8-11.28 109.79-13.92 110.78-16.55 111.83-20.41L111.83-20.41Q112.19-21.73 112.65-23.34 113.1-24.95 113.63-26.99 114.17-29.03 114.79-31.54 115.42-34.06 116.13-37.16L116.13-37.16 117.08-37.01Q116.59-31.15 116.16-25.35 115.73-19.56 115.73-13.7L115.73-13.7Q115.73-9.28 116.22-6.01 116.71-2.73 117.66-0.43 118.62 1.88 120.02 3.33 121.42 4.79 123.28 5.54L123.28 5.54ZM141.44-11.94L142.39-11.69Q141.39-8.98 140.57-7.15 139.76-5.32 138.99-4.2 138.22-3.08 137.46-2.59 136.7-2.1 135.8-2.1L135.8-2.1Q134.7-2.1 133.92-2.87 133.14-3.64 132.94-5.25L132.94-5.25Q132.16-3.56 130.92-2.5 129.67-1.44 127.79-1.44L127.79-1.44Q126.79-1.44 125.88-1.81 124.96-2.17 124.25-2.94 123.54-3.71 123.12-4.88 122.69-6.05 122.69-7.64L122.69-7.64Q122.69-9.25 123.09-10.67 123.5-12.08 124.15-13.27 124.81-14.45 125.68-15.38 126.55-16.31 127.48-16.94 128.4-17.58 129.33-17.92 130.26-18.26 131.04-18.26L131.04-18.26Q131.72-18.26 132.36-18.09 132.99-17.92 133.49-17.54 133.99-17.16 134.3-16.53 134.6-15.89 134.6-14.94L134.6-14.94Q134.6-13.82 134.18-12.99 133.75-12.16 133.15-11.6 132.55-11.04 131.93-10.69 131.31-10.35 130.94-10.21L130.94-10.21 130.65-11.16Q130.72-11.16 131.2-11.35 131.67-11.55 132.2-12 132.72-12.45 133.16-13.16 133.6-13.87 133.6-14.89L133.6-14.89Q133.6-16.06 132.94-16.69 132.28-17.31 131.26-17.31L131.26-17.31Q130.48-17.31 129.43-16.75 128.38-16.19 127.41-14.99 126.45-13.79 125.78-11.96 125.11-10.13 125.11-7.59L125.11-7.59Q125.11-5.08 126-3.76 126.89-2.44 128.4-2.44L128.4-2.44Q129.16-2.44 129.86-2.87 130.55-3.3 131.14-4 131.72-4.71 132.19-5.65 132.65-6.59 132.99-7.59L132.99-7.59Q132.99-8.37 133.18-9.44 133.36-10.5 133.75-11.6L133.75-11.6 135.24-11.11Q135.12-10.79 134.99-10.28 134.87-9.77 134.76-9.16 134.65-8.54 134.58-7.9 134.51-7.25 134.51-6.64L134.51-6.64Q134.51-4.74 134.88-4.02 135.26-3.3 136.19-3.3L136.19-3.3Q136.73-3.3 137.25-3.69 137.78-4.08 138.39-5.05 139-6.03 139.73-7.7 140.46-9.38 141.44-11.94L141.44-11.94ZM142.39-11.69L141.44-11.94Q141.8-12.89 142.23-13.76 142.66-14.62 143.15-15.28 143.63-15.94 144.21-16.35 144.78-16.75 145.49-16.75L145.49-16.75Q145.83-16.75 146.27-16.6 146.71-16.46 147.11-16.02 147.52-15.58 147.79-14.75 148.05-13.92 148.05-12.55L148.05-12.55Q148.05-11.84 147.98-10.99 147.91-10.13 147.83-9.3L147.83-9.3Q148.59-10.91 149.34-12.02 150.08-13.13 150.8-13.81 151.52-14.48 152.23-14.78 152.94-15.09 153.64-15.09L153.64-15.09Q153.96-15.09 154.39-14.94 154.82-14.79 155.19-14.43 155.57-14.06 155.83-13.43 156.09-12.79 156.09-11.79L156.09-11.79Q156.09-10.99 155.96-10.18 155.84-9.38 155.7-8.62 155.55-7.86 155.43-7.19 155.3-6.52 155.3-6.01L155.3-6.01Q155.3-4.79 155.74-4.14 156.18-3.49 157.09-3.49L157.09-3.49Q157.82-3.49 158.48-4.04 159.14-4.59 159.71-5.44 160.29-6.3 160.76-7.32 161.24-8.35 161.59-9.29 161.95-10.23 162.19-10.95 162.43-11.67 162.53-11.94L162.53-11.94 163.48-11.69Q163.14-10.84 162.76-9.8 162.38-8.76 161.92-7.71 161.46-6.67 160.92-5.68 160.38-4.69 159.72-3.93 159.06-3.17 158.3-2.71 157.53-2.25 156.6-2.25L156.6-2.25Q155.82-2.25 155.24-2.55 154.67-2.86 154.28-3.37 153.89-3.88 153.69-4.59 153.5-5.3 153.5-6.1L153.5-6.1Q153.5-7.01 153.66-7.96 153.82-8.91 154-9.79 154.18-10.67 154.34-11.41 154.5-12.16 154.5-12.65L154.5-12.65Q154.5-13.4 154.21-13.78 153.91-14.16 153.4-14.16L153.4-14.16Q152.69-14.16 152.02-13.65 151.35-13.13 150.73-12.28 150.1-11.43 149.54-10.33 148.98-9.23 148.51-8.07 148.03-6.91 147.63-5.76 147.22-4.61 146.93-3.69 146.64-2.76 146.43-2.11 146.22-1.46 146.15-1.29L146.15-1.29 144.73-1.54Q145.03-2.98 145.27-4.58 145.51-6.18 145.7-7.73 145.88-9.28 145.99-10.69 146.1-12.11 146.1-13.21L146.1-13.21Q146.1-14.7 145.91-15.22 145.71-15.75 145.2-15.75L145.2-15.75Q144.76-15.75 144.37-15.42 143.98-15.09 143.65-14.54 143.32-13.99 143-13.26 142.68-12.52 142.39-11.69L142.39-11.69ZM180.38-11.94L181.33-11.69Q180.33-8.98 179.51-7.15 178.69-5.32 177.92-4.2 177.15-3.08 176.4-2.59 175.64-2.1 174.74-2.1L174.74-2.1Q173.64-2.1 172.86-2.87 172.07-3.64 171.88-5.25L171.88-5.25Q171.1-3.56 169.85-2.5 168.61-1.44 166.73-1.44L166.73-1.44Q165.73-1.44 164.81-1.81 163.9-2.17 163.19-2.94 162.48-3.71 162.05-4.88 161.63-6.05 161.63-7.64L161.63-7.64Q161.63-9.25 162.03-10.67 162.43-12.08 163.09-13.27 163.75-14.45 164.62-15.38 165.48-16.31 166.41-16.94 167.34-17.58 168.27-17.92 169.19-18.26 169.98-18.26L169.98-18.26Q170.66-18.26 171.29-18.09 171.93-17.92 172.43-17.54 172.93-17.16 173.23-16.53 173.54-15.89 173.54-14.94L173.54-14.94Q173.54-13.82 173.11-12.99 172.69-12.16 172.09-11.6 171.49-11.04 170.87-10.69 170.24-10.35 169.88-10.21L169.88-10.21 169.58-11.16Q169.66-11.16 170.13-11.35 170.61-11.55 171.13-12 171.66-12.45 172.1-13.16 172.54-13.87 172.54-14.89L172.54-14.89Q172.54-16.06 171.88-16.69 171.22-17.31 170.19-17.31L170.19-17.31Q169.41-17.31 168.36-16.75 167.31-16.19 166.35-14.99 165.39-13.79 164.71-11.96 164.04-10.13 164.04-7.59L164.04-7.59Q164.04-5.08 164.93-3.76 165.82-2.44 167.34-2.44L167.34-2.44Q168.1-2.44 168.79-2.87 169.49-3.3 170.07-4 170.66-4.71 171.12-5.65 171.59-6.59 171.93-7.59L171.93-7.59Q171.93-8.37 172.11-9.44 172.29-10.5 172.69-11.6L172.69-11.6 174.17-11.11Q174.05-10.79 173.93-10.28 173.81-9.77 173.7-9.16 173.59-8.54 173.52-7.9 173.44-7.25 173.44-6.64L173.44-6.64Q173.44-4.74 173.82-4.02 174.2-3.3 175.13-3.3L175.13-3.3Q175.66-3.3 176.19-3.69 176.71-4.08 177.32-5.05 177.93-6.03 178.67-7.7 179.4-9.38 180.38-11.94L180.38-11.94ZM184.62 11.55L184.62 11.55Q183.21 11.55 182.12 11.13 181.03 10.72 180.3 10 179.57 9.28 179.2 8.29 178.83 7.3 178.83 6.15L178.83 6.15Q178.83 5.13 179.2 4.22 179.57 3.32 180.19 2.66 180.81 2 181.63 1.62 182.45 1.25 183.33 1.25L183.33 1.25Q184.18 1.25 185 1.72 185.82 2.2 186.57 3.05L186.57 3.05 185.77 3.66Q185.21 2.95 184.56 2.6 183.91 2.25 183.28 2.25L183.28 2.25Q182.57 2.25 181.95 2.55 181.33 2.86 180.84 3.37 180.35 3.88 180.07 4.57 179.79 5.25 179.79 6.01L179.79 6.01Q179.79 6.98 180.08 7.81 180.37 8.64 180.98 9.27 181.59 9.89 182.5 10.24 183.4 10.6 184.62 10.6L184.62 10.6Q186.31 10.6 187.48 9.8 188.65 9.01 189.38 7.74 190.11 6.47 190.44 4.87 190.77 3.27 190.77 1.66L190.77 1.66 190.77-2.15 190.77-4Q189.72-2.56 188.15-1.66 186.57-0.76 184.43-0.76L184.43-0.76Q183.5-0.76 182.57-1.06 181.64-1.37 180.9-2.1 180.15-2.83 179.69-4.08 179.23-5.32 179.23-7.2L179.23-7.2Q179.23-8.5 179.58-9.8 179.93-11.11 180.57-12.33 181.2-13.55 182.08-14.62 182.96-15.7 184.01-16.49 185.06-17.29 186.24-17.74 187.43-18.19 188.67-18.19L188.67-18.19Q189.46-18.19 190.08-17.94 190.7-17.7 191.18-17.31 191.65-16.92 192.01-16.44 192.36-15.97 192.58-15.5L192.58-15.5Q192.92-16.48 193.2-17.13 193.48-17.77 193.68-18.14L193.68-18.14 194.58-17.7Q194.51-17.55 194.2-16.7 193.9-15.84 193.56-14.31 193.21-12.77 192.95-10.57 192.68-8.37 192.68-5.54L192.68-5.54Q192.68-4.91 192.69-4.15 192.7-3.39 192.7-2.61 192.7-1.83 192.71-1.07 192.73-0.32 192.73 0.29L192.73 0.29Q192.73 3.66 191.99 5.85 191.26 8.03 190.1 9.3 188.94 10.57 187.49 11.06 186.04 11.55 184.62 11.55ZM186.04-2.25L186.04-2.25Q186.87-2.25 187.59-2.51 188.31-2.78 188.91-3.23 189.5-3.69 190-4.31 190.5-4.93 190.87-5.64L190.87-5.64Q191.02-8.52 191.4-10.63 191.77-12.74 192.19-14.26L192.19-14.26Q192.02-14.84 191.73-15.38 191.43-15.92 191.01-16.33 190.58-16.75 190-17 189.43-17.26 188.67-17.26L188.67-17.26Q187.75-17.26 186.5-16.66 185.26-16.06 184.13-14.86 183.01-13.65 182.24-11.84 181.47-10.03 181.47-7.64L181.47-7.64Q181.47-6.47 181.74-5.47 182.01-4.47 182.57-3.76 183.13-3.05 184-2.65 184.87-2.25 186.04-2.25ZM202.47-0.34L202.47-0.34Q201.22-0.34 200.07-0.78 198.93-1.22 198.06-2.11 197.19-3 196.68-4.35 196.17-5.69 196.17-7.5L196.17-7.5Q196.17-9.69 196.8-11.41 197.44-13.13 198.42-14.32 199.41-15.5 200.63-16.13 201.85-16.75 203.03-16.75L203.03-16.75Q204.54-16.75 205.43-15.75 206.32-14.75 206.32-13.16L206.32-13.16Q206.32-11.79 205.81-10.68 205.3-9.57 204.45-8.78 203.61-7.98 202.53-7.54 201.44-7.1 200.27-7.1L200.27-7.1Q199.71-7.1 199.21-7.17 198.71-7.23 198.31-7.3L198.31-7.3Q198.46-5.79 198.9-4.69 199.34-3.59 200-2.88 200.66-2.17 201.48-1.83 202.29-1.49 203.17-1.49L203.17-1.49Q204.27-1.49 205.2-2.03 206.13-2.56 206.91-3.43 207.69-4.3 208.34-5.42 208.98-6.54 209.5-7.7 210.01-8.86 210.41-9.97 210.81-11.08 211.13-11.94L211.13-11.94 212.08-11.69Q211.77-10.89 211.34-9.74 210.91-8.59 210.35-7.34 209.79-6.08 209.03-4.82 208.28-3.56 207.32-2.58 206.37-1.59 205.16-0.96 203.95-0.34 202.47-0.34ZM203.08-15.8L203.08-15.8Q202.17-15.8 201.31-15.22 200.44-14.65 199.76-13.65 199.07-12.65 198.64-11.28 198.22-9.91 198.22-8.35L198.22-8.35Q198.53-8.23 199.11-8.14 199.68-8.06 200.51-8.06L200.51-8.06Q201.39-8.06 202.26-8.44 203.12-8.81 203.82-9.48 204.52-10.16 204.94-11.08 205.37-12.01 205.37-13.11L205.37-13.11Q205.37-13.65 205.22-14.14 205.08-14.62 204.78-14.99 204.49-15.36 204.06-15.58 203.64-15.8 203.08-15.8ZM212.52-12.99L212.52-12.99Q212.28-12.13 212.03-11.52 211.79-10.91 211.5-10.39 211.2-9.86 210.85-9.39 210.49-8.91 210.06-8.35L210.06-8.35 209.86-8.54Q210.42-9.99 210.85-11.25 211.28-12.52 211.62-13.79L211.62-13.79Q211.23-14.36 210.95-15.2 210.67-16.04 210.67-17.21L210.67-17.21Q210.67-18.26 211-18.96 211.33-19.65 211.86-19.65L211.86-19.65Q212.16-19.65 212.41-19.38 212.67-19.12 212.84-18.68 213.01-18.24 213.11-17.66 213.2-17.09 213.2-16.46L213.2-16.46Q213.2-16.16 213.17-15.82 213.13-15.48 213.08-15.12 213.03-14.77 212.96-14.44 212.89-14.11 212.81-13.89L212.81-13.89Q212.96-13.77 213.29-13.68 213.62-13.6 214.16-13.6L214.16-13.6Q215.08-13.6 215.79-13.87 216.5-14.14 216.92-14.55L216.92-14.55Q217.28-15.14 217.49-15.45 217.7-15.77 217.82-15.93 217.94-16.09 218-16.13 218.06-16.16 218.16-16.16L218.16-16.16Q218.43-16.16 218.6-16.02 218.77-15.87 218.77-15.6L218.77-15.6Q218.77-15.53 218.7-15.41 218.62-15.28 218.5-15.09L218.5-15.09Q217.48-13.6 216.89-11.82 216.31-10.03 216.31-7.86L216.31-7.86Q216.31-5.35 217.12-4.22 217.94-3.1 219.45-3.1L219.45-3.1Q220.29-3.1 221.04-3.6 221.8-4.1 222.53-5.16 223.26-6.23 224.01-7.9 224.75-9.57 225.61-11.94L225.61-11.94 226.56-11.69Q225.51-8.59 224.58-6.6 223.65-4.61 222.75-3.45 221.85-2.29 220.9-1.84 219.94-1.39 218.82-1.39L218.82-1.39Q218.11-1.39 217.36-1.71 216.6-2.03 215.98-2.71 215.35-3.39 214.96-4.48 214.57-5.57 214.57-7.1L214.57-7.1Q214.57-7.86 214.71-8.68 214.84-9.5 215.06-10.27 215.28-11.04 215.55-11.76 215.82-12.48 216.11-13.06L216.11-13.06Q215.23-12.65 214.21-12.65L214.21-12.65Q213.2-12.65 212.52-12.99Z" opacity="1" transform="matrix(1,0,0,1,0,0)" fill="#ffffff" class="wordmark-text-0" data-fill-palette-color="primary" id="text-0"></path>
                                  </svg>
                                </g>
                              </svg>
                            </g>
                          </svg>
                        </g>
                      </svg>
                    </g>
                    <g>
                      <svg viewBox="0 0 244.43135999999998 244.43135999999998" height="244.43135999999998" width="244.43135999999998">
                        <g>
                          <svg viewBox="0 0 244.43135999999998 244.43135999999998" height="244.43135999999998" width="244.43135999999998">
                            <g transform="matrix(1,0,0,1,64.60265593644992,64.60265593644992)">
                              <svg viewBox="0 0 115.22604812710014 115.22604812710014" height="115.22604812710014" width="115.22604812710014">
                                <g>
                                  <svg xmlns="http://www.w3.org/2000/svg" xmlns:xlink="http://www.w3.org/1999/xlink" version="1.1" x="0" y="0" viewBox="20 20 480 480" style="enable-background:new 0 0 512 512;" xml:space="preserve" height="115.22604812710014" width="115.22604812710014" class="icon-b-0" data-fill-palette-color="accent" id="b-0">
                                    <g fill="#ffffff" data-fill-palette-color="accent">
                                      <g fill="#ffffff" data-fill-palette-color="accent">
                                        <g fill="#ffffff" data-fill-palette-color="accent">
                                          <path d="M400 500H120C117.37 500 114.79 498.93 112.93 497.069A10.07 10.07 0 0 1 110 490V270C110 264.479 114.49 260 120 260S130 264.479 130 270V480H390V210C390 204.49 394.49 200 400 200S410 204.49 410 210V490C410 492.63 408.93 495.21 407.069 497.069A10.07 10.07 0 0 1 400 500M120 230C114.49 230 110 225.51 110 220S114.49 210 120 210 130 214.49 130 220 125.51 230 120 230M120 180C114.49 180 110 175.51 110 170V30C110 27.37 111.07 24.79 112.93 22.93S117.37 20 120 20H400C402.63 20 405.21 21.07 407.069 22.93A10.07 10.07 0 0 1 410 30V110C410 115.52 405.51 120 400 120S390 115.52 390 110V40H130V170C130 175.51 125.51 180 120 180M400 170C394.49 170 390 165.51 390 160S394.49 150 400 150 410 154.49 410 160 405.51 170 400 170" fill="#ffffff" data-fill-palette-color="accent"></path>
                                        </g>
                                        <g fill="#ffffff" data-fill-palette-color="accent">
                                          <path d="M360 460H160C157.37 460 154.79 458.93 152.93 457.069A10.07 10.07 0 0 1 150 450V150C150 144.49 154.49 140 160 140S170 144.49 170 150V440H350C350 434.49 354.49 430 360 430S370 434.49 370 440C370 441.76 369.54 443.49 368.66 445A9.94 9.94 0 0 1 370 450C370 455.51 365.51 460 360 460M360 400C354.49 400 350 395.52 350 390V80H180C174.49 80 170 75.52 170 70 170 64.49 174.49 60 180 60H360C362.63 60 365.21 61.07 367.069 62.93A10.07 10.07 0 0 1 370 70V390C370 395.52 365.51 400 360 400M160 110C154.49 110 150 105.51 150 100S154.49 90 160 90 170 94.49 170 100 165.51 110 160 110" fill="#ffffff" data-fill-palette-color="accent"></path>
                                        </g>
                                        <g fill="#ffffff" data-fill-palette-color="accent">
                                          <path d="M450 90H400C397.37 90 394.79 88.93 392.93 87.07S390 82.63 390 80V40C390 37.37 391.069 34.79 392.93 32.93 394.79 31.07 397.37 30 400 30H450C452.63 30 455.21 31.07 457.069 32.93A10.07 10.07 0 0 1 460 40V80C460 82.63 458.93 85.21 457.069 87.07A10.07 10.07 0 0 1 450 90M410 70H440V50H410z" fill="#ffffff" data-fill-palette-color="accent"></path>
                                        </g>
                                        <g fill="#ffffff" data-fill-palette-color="accent">
                                          <path d="M450 170H400C397.37 170 394.79 168.93 392.93 167.07S390 162.63 390 160V120C390 117.37 391.069 114.79 392.93 112.93 394.79 111.07 397.37 110 400 110H450C452.63 110 455.21 111.07 457.069 112.93A10.08 10.08 0 0 1 460 120V160C460 162.63 458.93 165.21 457.069 167.07A10.07 10.07 0 0 1 450 170M410 150H440V130H410z" fill="#ffffff" data-fill-palette-color="accent"></path>
                                        </g>
                                        <g fill="#ffffff" data-fill-palette-color="accent">
                                          <path d="M450 250H400C397.359 250 394.79 248.93 392.93 247.07S390 242.63 390 240V200C390 197.37 391.069 194.79 392.93 192.93 394.79 191.07 397.37 190 400 190H450C452.63 190 455.21 191.07 457.069 192.93A10.08 10.08 0 0 1 460 200V240C460 242.63 458.93 245.21 457.069 247.07A10.07 10.07 0 0 1 450 250M410 230H440V210H410z" fill="#ffffff" data-fill-palette-color="accent"></path>
                                        </g>
                                        <g fill="#ffffff" data-fill-palette-color="accent">
                                          <path d="M450 330H400C397.359 330 394.79 328.93 392.93 327.069A10.07 10.07 0 0 1 390 320V280C390 277.37 391.069 274.79 392.93 272.93S397.37 270 400 270H450C452.63 270 455.21 271.069 457.069 272.93A10.08 10.08 0 0 1 460 280V320C460 322.63 458.93 325.21 457.069 327.069A10.07 10.07 0 0 1 450 330M410 310H440V290H410z" fill="#ffffff" data-fill-palette-color="accent"></path>
                                        </g>
                                        <g fill="#ffffff" data-fill-palette-color="accent">
                                          <path d="M450 410H400C397.37 410 394.79 408.93 392.93 407.069A10.07 10.07 0 0 1 390 400V360C390 357.37 391.069 354.79 392.93 352.93S397.37 350 400 350H450C452.63 350 455.21 351.069 457.069 352.93A10.08 10.08 0 0 1 460 360V400C460 402.63 458.93 405.21 457.069 407.069A10.07 10.07 0 0 1 450 410M410 390H440V370H410z" fill="#ffffff" data-fill-palette-color="accent"></path>
                                        </g>
                                        <g fill="#ffffff" data-fill-palette-color="accent">
                                          <path d="M450 490H400C397.37 490 394.79 488.93 392.93 487.069A10.07 10.07 0 0 1 390 480V440C390 437.37 391.069 434.79 392.93 432.93S397.37 430 400 430H450C452.63 430 455.21 431.069 457.069 432.93A10.08 10.08 0 0 1 460 440V480C460 482.63 458.93 485.21 457.069 487.069A10.07 10.07 0 0 1 450 490M410 470H440V450H410z" fill="#ffffff" data-fill-palette-color="accent"></path>
                                        </g>
                                        <g fill="#ffffff" data-fill-palette-color="accent">
                                          <path d="M490 70H450C444.49 70 440 65.51 440 60S444.49 50 450 50H490C495.51 50 500 54.49 500 60S495.51 70 490 70" fill="#ffffff" data-fill-palette-color="accent"></path>
                                        </g>
                                        <g fill="#ffffff" data-fill-palette-color="accent">
                                          <path d="M490 150H450C444.49 150 440 145.51 440 140S444.49 130 450 130H490C495.51 130 500 134.49 500 140S495.51 150 490 150" fill="#ffffff" data-fill-palette-color="accent"></path>
                                        </g>
                                        <g fill="#ffffff" data-fill-palette-color="accent">
                                          <path d="M490 230H450C444.49 230 440 225.52 440 220 440 214.49 444.49 210 450 210H490C495.51 210 500 214.49 500 220 500 225.52 495.51 230 490 230" fill="#ffffff" data-fill-palette-color="accent"></path>
                                        </g>
                                        <g fill="#ffffff" data-fill-palette-color="accent">
                                          <path d="M490 310H450C444.49 310 440 305.51 440 300S444.49 290 450 290H490C495.51 290 500 294.49 500 300S495.51 310 490 310" fill="#ffffff" data-fill-palette-color="accent"></path>
                                        </g>
                                        <g fill="#ffffff" data-fill-palette-color="accent">
                                          <path d="M490 390H450C444.49 390 440 385.51 440 380S444.49 370 450 370H490C495.51 370 500 374.49 500 380S495.51 390 490 390" fill="#ffffff" data-fill-palette-color="accent"></path>
                                        </g>
                                        <g fill="#ffffff" data-fill-palette-color="accent">
                                          <path d="M490 470H450C444.49 470 440 465.51 440 460S444.49 450 450 450H490C495.51 450 500 454.49 500 460S495.51 470 490 470" fill="#ffffff" data-fill-palette-color="accent"></path>
                                        </g>
                                        <g fill="#ffffff" data-fill-palette-color="accent">
                                          <path d="M120 90H70C67.37 90 64.79 88.93 62.93 87.07A10.08 10.08 0 0 1 60 80V40C60 37.37 61.07 34.79 62.93 32.93S67.37 30 70 30H120C122.63 30 125.21 31.07 127.07 32.93S130 37.37 130 40V80C130 82.63 128.93 85.21 127.07 87.07S122.63 90 120 90M80 70H110V50H80z" fill="#ffffff" data-fill-palette-color="accent"></path>
                                        </g>
                                        <g fill="#ffffff" data-fill-palette-color="accent">
                                          <path d="M120 170H70C67.37 170 64.79 168.93 62.93 167.07A10.08 10.08 0 0 1 60 160V120C60 117.37 61.07 114.79 62.93 112.93S67.37 110 70 110H120C122.63 110 125.21 111.07 127.07 112.93S130 117.37 130 120V160C130 162.63 128.93 165.21 127.07 167.07S122.63 170 120 170M80 150H110V130H80z" fill="#ffffff" data-fill-palette-color="accent"></path>
                                        </g>
                                        <g fill="#ffffff" data-fill-palette-color="accent">
                                          <path d="M120 250H70C67.37 250 64.79 248.93 62.93 247.07A10.08 10.08 0 0 1 60 240V200C60 197.37 61.07 194.79 62.93 192.93S67.37 190 70 190H120C122.63 190 125.21 191.07 127.07 192.93S130 197.37 130 200V240C130 242.63 128.93 245.21 127.07 247.07S122.63 250 120 250M80 230H110V210H80z" fill="#ffffff" data-fill-palette-color="accent"></path>
                                        </g>
                                        <g fill="#ffffff" data-fill-palette-color="accent">
                                          <path d="M120 330H70C67.37 330 64.79 328.93 62.93 327.069A10.07 10.07 0 0 1 60 320V280C60 277.37 61.07 274.79 62.93 272.93S67.37 270 70 270H120C122.63 270 125.21 271.069 127.07 272.93S130 277.37 130 280V320C130 322.63 128.93 325.21 127.07 327.069A10.07 10.07 0 0 1 120 330M80 310H110V290H80z" fill="#ffffff" data-fill-palette-color="accent"></path>
                                        </g>
                                        <g fill="#ffffff" data-fill-palette-color="accent">
                                          <path d="M120 410H70C67.37 410 64.79 408.93 62.93 407.069A10.07 10.07 0 0 1 60 400V360C60 357.37 61.07 354.79 62.93 352.93S67.37 350 70 350H120C122.63 350 125.21 351.069 127.07 352.93S130 357.37 130 360V400C130 402.63 128.93 405.21 127.07 407.069A10.07 10.07 0 0 1 120 410M80 390H110V370H80z" fill="#ffffff" data-fill-palette-color="accent"></path>
                                        </g>
                                        <g fill="#ffffff" data-fill-palette-color="accent">
                                          <path d="M120 490H70C67.37 490 64.79 488.93 62.93 487.069A10.07 10.07 0 0 1 60 480V440C60 437.37 61.07 434.79 62.93 432.93S67.37 430 70 430H120C122.63 430 125.21 431.069 127.07 432.93S130 437.37 130 440V480C130 482.63 128.93 485.21 127.07 487.069A10.07 10.07 0 0 1 120 490M80 470H110V450H80z" fill="#ffffff" data-fill-palette-color="accent"></path>
                                        </g>
                                        <g fill="#ffffff" data-fill-palette-color="accent">
                                          <path d="M70 70H30C24.49 70 20 65.51 20 60S24.49 50 30 50H70C75.51 50 80 54.49 80 60S75.51 70 70 70" fill="#ffffff" data-fill-palette-color="accent"></path>
                                        </g>
                                        <g fill="#ffffff" data-fill-palette-color="accent">
                                          <path d="M70 150H30C24.49 150 20 145.52 20 140 20 134.49 24.49 130 30 130H70C75.51 130 80 134.49 80 140 80 145.52 75.51 150 70 150" fill="#ffffff" data-fill-palette-color="accent"></path>
                                        </g>
                                        <g fill="#ffffff" data-fill-palette-color="accent">
                                          <path d="M70 230H30C24.49 230 20 225.51 20 220S24.49 210 30 210H70C75.51 210 80 214.49 80 220S75.51 230 70 230" fill="#ffffff" data-fill-palette-color="accent"></path>
                                        </g>
                                        <g fill="#ffffff" data-fill-palette-color="accent">
                                          <path d="M70 310H30C24.49 310 20 305.51 20 300S24.49 290 30 290H70C75.51 290 80 294.49 80 300S75.51 310 70 310" fill="#ffffff" data-fill-palette-color="accent"></path>
                                        </g>
                                        <g fill="#ffffff" data-fill-palette-color="accent">
                                          <path d="M70 390H30C24.49 390 20 385.51 20 380 20 374.479 24.49 370 30 370H70C75.51 370 80 374.479 80 380 80 385.51 75.51 390 70 390" fill="#ffffff" data-fill-palette-color="accent"></path>
                                        </g>
                                        <g fill="#ffffff" data-fill-palette-color="accent">
                                          <path d="M70 470H30C24.49 470 20 465.51 20 460S24.49 450 30 450H70C75.51 450 80 454.49 80 460S75.51 470 70 470" fill="#ffffff" data-fill-palette-color="accent"></path>
                                        </g>
                                        <g fill="#ffffff" data-fill-palette-color="accent">
                                          <path d="M320 170H200C197.37 170 194.79 168.93 192.93 167.07A10.08 10.08 0 0 1 190 160V110C190 107.37 191.07 104.79 192.93 102.93S197.37 100 200 100H320C322.63 100 325.21 101.07 327.069 102.93A10.08 10.08 0 0 1 330 110V160C330 162.63 328.93 165.21 327.069 167.07A10.07 10.07 0 0 1 320 170M210 150H310V120H210z" fill="#ffffff" data-fill-palette-color="accent"></path>
                                        </g>
                                        <g fill="#ffffff" data-fill-palette-color="accent">
                                          <path d="M320 250H200C197.37 250 194.79 248.93 192.93 247.07A10.08 10.08 0 0 1 190 240V200C190 197.37 191.07 194.79 192.93 192.93S197.37 190 200 190H320C322.63 190 325.21 191.07 327.069 192.93A10.08 10.08 0 0 1 330 200V240C330 242.63 328.93 245.21 327.069 247.07A10.07 10.07 0 0 1 320 250M210 230H310V210H210z" fill="#ffffff" data-fill-palette-color="accent"></path>
                                        </g>
                                        <g fill="#ffffff" data-fill-palette-color="accent">
                                          <path d="M320 330H200C197.37 330 194.79 328.93 192.93 327.069A10.07 10.07 0 0 1 190 320V280C190 277.37 191.07 274.79 192.93 272.93S197.37 270 200 270H320C322.63 270 325.21 271.069 327.069 272.93A10.08 10.08 0 0 1 330 280V320C330 322.63 328.93 325.21 327.069 327.069A10.07 10.07 0 0 1 320 330M210 310H310V290H210z" fill="#ffffff" data-fill-palette-color="accent"></path>
                                        </g>
                                        <g fill="#ffffff" data-fill-palette-color="accent">
                                          <path d="M320 420H200C197.37 420 194.79 418.93 192.93 417.069A10.07 10.07 0 0 1 190 410V360C190 357.37 191.07 354.79 192.93 352.93S197.37 350 200 350H320C322.63 350 325.21 351.069 327.069 352.93A10.08 10.08 0 0 1 330 360V410C330 412.63 328.93 415.21 327.069 417.069A10.07 10.07 0 0 1 320 420M210 400H310V370H210z" fill="#ffffff" data-fill-palette-color="accent"></path>
                                        </g>
                                      </g>
                                    </g>
                                  </svg>
                                </g>
                              </svg>
                            </g>
                            <g id="text-0">
                              <path d="M8.04 91.012v0c0.488 0.163 0.962 0.209 1.422 0.137 0.46-0.071 0.909-0.224 1.347-0.458 0.431-0.236 0.86-0.54 1.287-0.912 0.421-0.373 0.844-0.778 1.271-1.212 0.418-0.431 0.84-0.881 1.265-1.352 0.431-0.469 0.867-0.918 1.306-1.348 0.44-0.431 0.895-0.824 1.366-1.181 0.465-0.359 0.944-0.646 1.439-0.86 0.501-0.213 1.019-0.342 1.556-0.389 0.536-0.046 1.099 0.029 1.688 0.226v0c1.077 0.36 1.94 0.874 2.59 1.542 0.65 0.668 1.118 1.426 1.405 2.275 0.293 0.851 0.414 1.765 0.362 2.741-0.047 0.984-0.234 1.964-0.559 2.939v0c-0.288 0.861-0.674 1.637-1.158 2.328-0.478 0.692-1.013 1.26-1.604 1.703-0.594 0.449-1.226 0.752-1.899 0.908-0.676 0.147-1.343 0.111-2.002-0.11v0c-0.576-0.193-1.041-0.446-1.393-0.761-0.35-0.321-0.619-0.633-0.807-0.935-0.194-0.304-0.318-0.575-0.373-0.811-0.063-0.232-0.094-0.362-0.092-0.39v0l0.716-0.088c0 0.021 0.025 0.125 0.076 0.31 0.053 0.18 0.158 0.391 0.316 0.634 0.152 0.241 0.368 0.489 0.649 0.745 0.281 0.256 0.659 0.463 1.134 0.622v0c0.475 0.159 0.929 0.212 1.362 0.159 0.435-0.059 0.846-0.193 1.232-0.401 0.38-0.211 0.736-0.476 1.069-0.795 0.334-0.325 0.635-0.679 0.903-1.06 0.266-0.376 0.499-0.766 0.698-1.172 0.199-0.405 0.359-0.789 0.479-1.149v0c0.311-0.931 0.475-1.813 0.493-2.645 0.026-0.836-0.078-1.589-0.312-2.259-0.228-0.668-0.565-1.238-1.012-1.711-0.443-0.465-0.978-0.802-1.606-1.012v0c-0.703-0.235-1.358-0.288-1.964-0.16-0.613 0.126-1.198 0.371-1.755 0.734-0.558 0.363-1.097 0.806-1.617 1.329-0.52 0.523-1.039 1.065-1.556 1.624-0.522 0.551-1.053 1.085-1.592 1.602-0.541 0.523-1.108 0.957-1.702 1.3-0.596 0.35-1.225 0.58-1.888 0.69-0.672 0.114-1.4 0.039-2.186-0.224v0c-0.868-0.29-1.613-0.704-2.236-1.243-0.625-0.533-1.11-1.145-1.455-1.839-0.354-0.689-0.558-1.429-0.61-2.221-0.054-0.786 0.054-1.584 0.325-2.394v0c0.273-0.817 0.607-1.501 1.002-2.052 0.391-0.559 0.828-0.991 1.31-1.295 0.475-0.306 0.985-0.481 1.527-0.525 0.545-0.05 1.106 0.021 1.682 0.214v0c0.462 0.155 0.896 0.363 1.301 0.625 0.407 0.256 0.766 0.51 1.077 0.761 0.31 0.252 0.554 0.47 0.731 0.656 0.184 0.188 0.287 0.29 0.31 0.304v0l-0.532 0.488c-0.006-0.002-0.094-0.088-0.263-0.257-0.169-0.169-0.394-0.371-0.674-0.605-0.289-0.23-0.62-0.464-0.991-0.701-0.378-0.239-0.776-0.428-1.194-0.568v0c-0.475-0.159-0.938-0.218-1.388-0.179-0.45 0.04-0.869 0.188-1.257 0.446-0.391 0.264-0.752 0.639-1.085 1.127-0.323 0.483-0.608 1.092-0.853 1.827v0c-0.226 0.678-0.325 1.342-0.296 1.993 0.033 0.659 0.179 1.267 0.436 1.825 0.261 0.566 0.628 1.062 1.098 1.486 0.469 0.431 1.029 0.756 1.681 0.974z" fill="#ffffff" data-fill-palette-color="accent"></path>
                              <path d="M32.828 58.452l0.419-0.37c0.64 0.891 1.16 1.66 1.56 2.308 0.404 0.643 0.701 1.206 0.891 1.689 0.19 0.483 0.282 0.895 0.277 1.238-0.006 0.343-0.104 0.655-0.294 0.937v0c-0.235 0.349-0.557 0.563-0.965 0.643-0.412 0.085-0.893-0.014-1.443-0.297v0c0.367 0.602 0.587 1.214 0.659 1.834 0.067 0.617-0.099 1.222-0.499 1.815v0c-0.213 0.316-0.475 0.578-0.785 0.787-0.31 0.209-0.659 0.345-1.046 0.406-0.393 0.057-0.822 0.03-1.286-0.082-0.455-0.114-0.934-0.34-1.439-0.68v0c-0.504-0.34-0.937-0.725-1.299-1.155-0.357-0.426-0.655-0.869-0.893-1.327-0.229-0.461-0.399-0.926-0.51-1.395-0.107-0.475-0.163-0.923-0.167-1.345-0.001-0.428 0.044-0.824 0.137-1.189 0.087-0.368 0.213-0.674 0.377-0.917v0c0.146-0.216 0.313-0.405 0.503-0.567 0.19-0.162 0.397-0.284 0.622-0.366 0.226-0.073 0.471-0.089 0.733-0.049 0.267 0.035 0.549 0.153 0.849 0.354v0c0.354 0.239 0.615 0.515 0.781 0.83 0.171 0.308 0.281 0.616 0.332 0.924 0.05 0.308 0.065 0.596 0.045 0.864-0.029 0.27-0.058 0.48-0.087 0.631v0l-0.546-0.176c0.015-0.022 0.042-0.129 0.082-0.319 0.04-0.191 0.047-0.416 0.02-0.675-0.032-0.263-0.112-0.539-0.24-0.826-0.134-0.292-0.361-0.546-0.682-0.762v0c-0.371-0.25-0.724-0.335-1.06-0.256-0.337 0.07-0.615 0.266-0.831 0.587v0c-0.168 0.249-0.276 0.6-0.322 1.051-0.043 0.446 0.021 0.948 0.192 1.507 0.171 0.558 0.476 1.139 0.915 1.742 0.434 0.599 1.05 1.167 1.847 1.705v0c0.792 0.534 1.489 0.803 2.091 0.806 0.606-0.002 1.069-0.242 1.39-0.718v0c0.161-0.238 0.249-0.513 0.266-0.824 0.013-0.306-0.031-0.629-0.131-0.97-0.098-0.332-0.246-0.669-0.442-1.011-0.198-0.351-0.42-0.686-0.664-1.004v0c-0.244-0.164-0.514-0.391-0.811-0.68-0.295-0.279-0.576-0.598-0.842-0.954v0l0.709-0.549c0.074 0.106 0.177 0.232 0.312 0.379 0.14 0.151 0.293 0.306 0.458 0.467 0.171 0.164 0.35 0.329 0.537 0.494 0.19 0.16 0.379 0.304 0.567 0.431v0c0.604 0.407 1.06 0.626 1.369 0.658 0.305 0.037 0.557-0.091 0.755-0.385v0c0.116-0.172 0.164-0.381 0.145-0.627-0.01-0.248-0.102-0.572-0.275-0.971-0.179-0.403-0.455-0.895-0.829-1.478-0.369-0.587-0.853-1.309-1.452-2.163z" fill="#ffffff" data-fill-palette-color="accent"></path>
                              <path d="M49.487 40.724l0.49-0.269c0.263 0.697 0.47 1.31 0.62 1.839 0.155 0.534 0.252 1.002 0.292 1.405 0.035 0.407 0.011 0.756-0.073 1.046-0.093 0.29-0.252 0.541-0.475 0.752v0c-0.301 0.284-0.648 0.432-1.041 0.445-0.397 0.007-0.75-0.114-1.059-0.364v0c0.223 0.616 0.393 1.195 0.509 1.737 0.121 0.547 0.192 1.04 0.212 1.48 0.02 0.44-0.007 0.819-0.082 1.138-0.071 0.314-0.179 0.54-0.325 0.678v0c-0.121 0.115-0.32 0.206-0.596 0.273-0.276 0.068-0.604 0.06-0.984-0.021-0.39-0.082-0.824-0.265-1.302-0.548-0.483-0.279-0.991-0.7-1.523-1.263v0c-0.353-0.374-0.649-0.742-0.889-1.103-0.249-0.362-0.45-0.686-0.603-0.974v0c-0.179-0.336-0.326-0.657-0.439-0.963v0l0.434-0.327c0.236 0.319 0.48 0.621 0.732 0.907 0.247 0.281 0.487 0.546 0.721 0.793v0c0.527 0.559 1.026 1.034 1.497 1.426 0.471 0.382 0.885 0.689 1.242 0.921 0.362 0.228 0.665 0.374 0.908 0.438 0.244 0.073 0.407 0.071 0.489-0.007v0c0.092-0.087 0.152-0.286 0.181-0.597 0.023-0.316 0.011-0.704-0.038-1.164-0.058-0.46-0.154-0.971-0.288-1.532-0.135-0.561-0.314-1.131-0.539-1.709v0c-0.139-0.108-0.307-0.243-0.505-0.404-0.203-0.167-0.366-0.315-0.49-0.447v0c-0.422-0.447-0.722-0.843-0.901-1.188-0.174-0.34-0.275-0.632-0.301-0.873-0.031-0.237-0.014-0.428 0.052-0.573 0.07-0.149 0.132-0.249 0.186-0.299v0c0.18-0.17 0.4-0.116 0.661 0.161v0c0.133 0.141 0.274 0.329 0.423 0.565 0.159 0.236 0.314 0.493 0.467 0.771 0.153 0.278 0.296 0.561 0.429 0.849 0.138 0.292 0.255 0.572 0.351 0.839v0c0.225 0.238 0.434 0.412 0.63 0.522 0.205 0.11 0.394 0.174 0.568 0.194 0.179 0.015 0.343-0.007 0.491-0.064 0.144-0.062 0.274-0.148 0.39-0.258v0c0.287-0.27 0.386-0.749 0.297-1.437-0.084-0.692-0.357-1.624-0.819-2.795z" fill="#ffffff" data-fill-palette-color="accent"></path>
                              <path d="M67.659 35.853v0c-0.406 0.245-0.838 0.409-1.295 0.49-0.464 0.085-0.924 0.066-1.38-0.056-0.456-0.122-0.898-0.351-1.327-0.685-0.437-0.337-0.832-0.796-1.184-1.379v0c-0.432-0.715-0.714-1.414-0.847-2.099-0.127-0.688-0.146-1.32-0.057-1.897 0.085-0.582 0.265-1.092 0.538-1.53 0.276-0.448 0.605-0.787 0.989-1.019v0c0.492-0.297 0.979-0.369 1.461-0.215 0.488 0.15 0.89 0.485 1.204 1.004v0c0.266 0.44 0.425 0.89 0.476 1.351 0.055 0.466 0.023 0.91-0.095 1.334-0.119 0.423-0.313 0.813-0.581 1.17-0.268 0.357-0.591 0.649-0.968 0.877v0c-0.183 0.111-0.364 0.204-0.543 0.282-0.17 0.08-0.325 0.146-0.465 0.199v0c0.343 0.464 0.693 0.83 1.049 1.098 0.36 0.274 0.716 0.461 1.065 0.562 0.355 0.097 0.699 0.124 1.031 0.079 0.334-0.054 0.644-0.167 0.93-0.34v0c0.354-0.214 0.631-0.498 0.831-0.852 0.196-0.36 0.335-0.756 0.417-1.189 0.088-0.435 0.127-0.9 0.118-1.394-0.015-0.49-0.051-0.976-0.107-1.456-0.062-0.477-0.136-0.936-0.223-1.376-0.086-0.44-0.162-0.83-0.228-1.172v0l0.535-0.16c0.056 0.325 0.125 0.717 0.206 1.175 0.087 0.454 0.164 0.943 0.23 1.464 0.062 0.516 0.095 1.055 0.098 1.615-0.001 0.554-0.057 1.088-0.169 1.6-0.115 0.507-0.31 0.979-0.583 1.417-0.27 0.444-0.645 0.811-1.126 1.102zM63.398 28.14v0c-0.292 0.176-0.522 0.44-0.692 0.792-0.172 0.361-0.271 0.772-0.297 1.233-0.02 0.457 0.031 0.949 0.154 1.475 0.132 0.529 0.352 1.047 0.659 1.556v0c0.127-0.022 0.294-0.076 0.5-0.161 0.2-0.082 0.437-0.206 0.712-0.372v0c0.286-0.173 0.531-0.406 0.734-0.701 0.208-0.289 0.36-0.612 0.458-0.967 0.088-0.358 0.114-0.728 0.077-1.112-0.046-0.386-0.178-0.759-0.395-1.119v0c-0.104-0.171-0.227-0.323-0.369-0.456-0.148-0.129-0.304-0.226-0.468-0.29-0.166-0.056-0.34-0.079-0.522-0.071-0.184 0.018-0.368 0.082-0.551 0.193z" fill="#ffffff" data-fill-palette-color="accent"></path>
                              <path d="M122.136 23.805l-0.168 0.54c-0.013 0.001-0.162-0.008-0.446-0.026-0.283-0.012-0.646-0.087-1.089-0.225-0.436-0.138-0.915-0.363-1.435-0.674-0.52-0.304-1.017-0.749-1.491-1.333-0.474-0.591-0.898-1.344-1.27-2.26-0.372-0.916-0.625-2.049-0.757-3.398v0c-0.05-0.512-0.081-1.123-0.091-1.833-0.016-0.71-0.018-1.471-0.004-2.285 0.02-0.814 0.045-1.655 0.074-2.524 0.035-0.869 0.072-1.715 0.112-2.538 0.046-0.823 0.093-1.606 0.141-2.349 0.041-0.742 0.074-1.39 0.1-1.942v0c-0.062 0.456-0.135 0.949-0.216 1.481-0.081 0.538-0.17 1.104-0.266 1.697-0.09 0.586-0.181 1.192-0.273 1.818-0.093 0.627-0.185 1.25-0.279 1.87v0c-0.097 0.647-0.209 1.319-0.335 2.016-0.126 0.697-0.276 1.386-0.45 2.068-0.174 0.688-0.378 1.342-0.612 1.963-0.227 0.626-0.491 1.183-0.792 1.668-0.308 0.487-0.651 0.883-1.03 1.189-0.379 0.306-0.811 0.483-1.297 0.53v0c-0.266 0.026-0.523 0.001-0.772-0.074-0.249-0.076-0.475-0.228-0.679-0.457-0.204-0.228-0.379-0.543-0.526-0.944-0.146-0.395-0.251-0.908-0.313-1.54v0c-0.036-0.366-0.064-0.816-0.083-1.351-0.019-0.535-0.037-1.12-0.052-1.756-0.009-0.637-0.015-1.314-0.019-2.032 0.003-0.718 0.005-1.443 0.007-2.175 0.002-0.732 0.004-1.457 0.006-2.175 0.003-0.718 0.006-1.403 0.009-2.054v0c-0.143 1.001-0.309 2.245-0.497 3.733-0.188 1.495-0.396 3.166-0.623 5.014v0c-0.196 1.556-0.421 2.941-0.678 4.154-0.256 1.213-0.523 2.28-0.801 3.2-0.279 0.913-0.555 1.689-0.828 2.326-0.273 0.638-0.517 1.155-0.733 1.552-0.215 0.404-0.394 0.697-0.537 0.878-0.136 0.188-0.203 0.285-0.203 0.292v0l-0.514-0.211c-0.001-0.007 0.065-0.161 0.196-0.462 0.139-0.296 0.309-0.708 0.512-1.238 0.209-0.537 0.444-1.178 0.706-1.922 0.262-0.751 0.526-1.575 0.793-2.474 0.266-0.905 0.526-1.877 0.78-2.916 0.246-1.044 0.458-2.129 0.635-3.253v0c0.266-1.59 0.497-3.062 0.692-4.417 0.203-1.349 0.369-2.519 0.499-3.512 0.138-0.987 0.243-1.759 0.315-2.316 0.067-0.55 0.099-0.832 0.098-0.845v0l0.554 0.005c0.001 0.013 0.019 0.23 0.054 0.649 0.034 0.413 0.084 0.951 0.15 1.616 0.059 0.665 0.126 1.417 0.202 2.255 0.076 0.838 0.156 1.679 0.239 2.524 0.077 0.851 0.151 1.669 0.222 2.454 0.077 0.778 0.143 1.449 0.198 2.014v0c0.064 0.645 0.145 1.231 0.244 1.757 0.106 0.526 0.233 0.97 0.383 1.332 0.156 0.36 0.331 0.635 0.524 0.824 0.192 0.182 0.415 0.261 0.668 0.236v0c0.199-0.02 0.429-0.18 0.687-0.481 0.252-0.3 0.518-0.772 0.796-1.417 0.278-0.652 0.554-1.491 0.829-2.518 0.274-1.034 0.538-2.301 0.793-3.802v0c0.09-0.512 0.189-1.079 0.295-1.701 0.113-0.628 0.23-1.338 0.354-2.128 0.13-0.791 0.264-1.674 0.403-2.647 0.146-0.974 0.294-2.059 0.444-3.255v0l0.547 0.027c0.032 2.232 0.077 4.452 0.133 6.66 0.057 2.209 0.194 4.42 0.413 6.634v0c0.165 1.668 0.401 3.111 0.708 4.329 0.301 1.218 0.678 2.248 1.13 3.089 0.445 0.835 0.96 1.502 1.547 2.002 0.579 0.493 1.235 0.848 1.967 1.064z" fill="#ffffff" data-fill-palette-color="accent"></path>
                              <path d="M146.499 16.528l0.511 0.228c-0.545 0.952-1.03 1.744-1.454 2.377-0.418 0.634-0.806 1.138-1.167 1.511-0.36 0.373-0.698 0.628-1.012 0.765-0.314 0.137-0.639 0.178-0.975 0.122v0c-0.415-0.069-0.743-0.273-0.984-0.612-0.248-0.339-0.357-0.818-0.329-1.436v0c-0.396 0.584-0.861 1.038-1.395 1.361-0.534 0.317-1.153 0.417-1.858 0.299v0c-0.375-0.063-0.723-0.192-1.043-0.388-0.319-0.196-0.587-0.457-0.803-0.784-0.215-0.334-0.368-0.735-0.459-1.204-0.085-0.461-0.078-0.991 0.023-1.591v0c0.1-0.599 0.271-1.153 0.511-1.661 0.24-0.502 0.519-0.956 0.837-1.364 0.324-0.399 0.677-0.747 1.058-1.042 0.388-0.294 0.773-0.531 1.155-0.71 0.389-0.179 0.768-0.302 1.138-0.369 0.371-0.073 0.702-0.086 0.992-0.037v0c0.257 0.043 0.498 0.117 0.724 0.223 0.226 0.106 0.423 0.243 0.591 0.413 0.16 0.176 0.276 0.392 0.349 0.648 0.079 0.257 0.089 0.563 0.029 0.919v0c-0.07 0.422-0.214 0.773-0.43 1.055-0.21 0.283-0.444 0.511-0.704 0.685-0.259 0.173-0.515 0.307-0.767 0.4-0.258 0.086-0.461 0.146-0.61 0.182v0l-0.067-0.57c0.026 0.004 0.135-0.015 0.324-0.057 0.19-0.043 0.398-0.13 0.623-0.262 0.226-0.138 0.444-0.325 0.652-0.561 0.21-0.243 0.347-0.555 0.411-0.937v0c0.074-0.441 0.005-0.798-0.207-1.07-0.204-0.278-0.497-0.449-0.879-0.513v0c-0.296-0.05-0.66-0.002-1.09 0.143-0.424 0.146-0.854 0.412-1.292 0.799-0.437 0.387-0.839 0.906-1.205 1.556-0.365 0.643-0.627 1.439-0.785 2.388v0c-0.158 0.942-0.113 1.687 0.134 2.236 0.253 0.55 0.663 0.873 1.23 0.968v0c0.283 0.047 0.57 0.014 0.859-0.1 0.283-0.115 0.56-0.289 0.829-0.522 0.261-0.227 0.507-0.501 0.737-0.821 0.237-0.326 0.45-0.666 0.638-1.021v0c0.048-0.29 0.143-0.63 0.282-1.019 0.132-0.384 0.305-0.772 0.519-1.163v0l0.794 0.417c-0.066 0.111-0.138 0.258-0.216 0.441-0.079 0.19-0.157 0.394-0.234 0.611-0.078 0.224-0.154 0.455-0.228 0.694-0.067 0.239-0.119 0.471-0.157 0.694v0c-0.12 0.718-0.13 1.224-0.03 1.519 0.093 0.293 0.314 0.469 0.663 0.527v0c0.204 0.034 0.414-0.009 0.631-0.128 0.222-0.112 0.478-0.33 0.769-0.653 0.292-0.33 0.626-0.786 1.001-1.367 0.381-0.58 0.837-1.319 1.366-2.219z" fill="#ffffff" data-fill-palette-color="accent"></path>
                              <path d="M161.425 21.205l-0.444-0.339c0.263-0.281 0.535-0.54 0.815-0.776 0.277-0.246 0.55-0.446 0.818-0.602 0.271-0.162 0.534-0.272 0.791-0.33 0.263-0.056 0.517-0.033 0.764 0.071v0c0.117 0.049 0.241 0.134 0.371 0.254 0.133 0.114 0.238 0.278 0.315 0.491 0.077 0.213 0.104 0.486 0.081 0.816-0.032 0.334-0.147 0.739-0.347 1.213v0c-0.106 0.252-0.234 0.521-0.382 0.806-0.151 0.291-0.303 0.575-0.456 0.852v0c0.503-0.455 0.968-0.821 1.396-1.098 0.422-0.279 0.808-0.483 1.158-0.611 0.351-0.128 0.673-0.195 0.966-0.202 0.296 0.001 0.568 0.054 0.814 0.157v0c0.111 0.047 0.23 0.126 0.357 0.237 0.124 0.118 0.229 0.266 0.312 0.446 0.081 0.186 0.118 0.408 0.111 0.666-0.001 0.26-0.075 0.566-0.222 0.917v0c-0.119 0.283-0.26 0.557-0.422 0.823-0.162 0.265-0.327 0.518-0.493 0.76-0.161 0.244-0.311 0.474-0.453 0.69-0.141 0.216-0.25 0.413-0.325 0.591v0c-0.181 0.431-0.243 0.793-0.184 1.085 0.061 0.286 0.251 0.497 0.571 0.632v0c0.252 0.106 0.536 0.113 0.85 0.02 0.308-0.095 0.627-0.251 0.957-0.467 0.327-0.21 0.651-0.462 0.969-0.755 0.316-0.287 0.605-0.568 0.865-0.843 0.263-0.281 0.49-0.529 0.683-0.745 0.192-0.216 0.323-0.364 0.393-0.444v0l0.444 0.339c-0.241 0.246-0.506 0.523-0.794 0.829-0.282 0.309-0.581 0.614-0.896 0.917-0.321 0.3-0.647 0.583-0.976 0.85-0.336 0.265-0.673 0.481-1.013 0.65-0.345 0.166-0.688 0.276-1.029 0.328-0.332 0.049-0.661 0.005-0.987-0.132v0c-0.277-0.116-0.492-0.268-0.645-0.456-0.159-0.19-0.268-0.406-0.326-0.648-0.06-0.235-0.073-0.491-0.037-0.765 0.03-0.277 0.104-0.558 0.223-0.841v0c0.135-0.32 0.302-0.634 0.504-0.94 0.195-0.309 0.388-0.605 0.579-0.887 0.191-0.282 0.368-0.541 0.533-0.776 0.167-0.241 0.285-0.445 0.355-0.611v0c0.111-0.265 0.146-0.486 0.104-0.662-0.05-0.173-0.165-0.297-0.343-0.373v0c-0.246-0.103-0.527-0.116-0.842-0.039-0.309 0.08-0.635 0.226-0.977 0.437-0.346 0.202-0.696 0.457-1.05 0.765-0.357 0.299-0.705 0.617-1.041 0.953-0.343 0.334-0.667 0.672-0.971 1.016-0.312 0.347-0.588 0.658-0.827 0.935-0.242 0.282-0.448 0.522-0.617 0.718-0.163 0.199-0.269 0.322-0.317 0.367v0l-0.698-0.435c0.317-0.461 0.636-0.953 0.958-1.477 0.316-0.527 0.621-1.047 0.916-1.56 0.292-0.522 0.563-1.02 0.813-1.495 0.247-0.483 0.45-0.916 0.611-1.297v0c0.22-0.523 0.335-0.892 0.345-1.105 0.01-0.213-0.077-0.359-0.263-0.436v0c-0.154-0.065-0.323-0.067-0.507-0.007-0.185 0.06-0.376 0.161-0.573 0.303-0.197 0.142-0.406 0.319-0.625 0.53-0.22 0.212-0.439 0.442-0.66 0.69z" fill="#ffffff" data-fill-palette-color="accent"></path>
                              <path d="M193.263 39.264l0.353 0.434c-0.916 0.603-1.706 1.091-2.371 1.464-0.659 0.377-1.234 0.651-1.724 0.822-0.49 0.17-0.906 0.245-1.248 0.226-0.342-0.02-0.65-0.13-0.924-0.332v0c-0.339-0.249-0.54-0.579-0.603-0.991-0.068-0.415 0.051-0.891 0.356-1.429v0c-0.617 0.342-1.237 0.537-1.86 0.584-0.619 0.042-1.217-0.149-1.793-0.573v0c-0.307-0.226-0.558-0.498-0.755-0.816-0.197-0.319-0.317-0.673-0.362-1.063-0.041-0.395 0.004-0.822 0.134-1.281 0.132-0.45 0.378-0.92 0.739-1.41v0c0.36-0.49 0.762-0.907 1.206-1.251 0.44-0.339 0.895-0.619 1.363-0.838 0.47-0.21 0.941-0.361 1.415-0.452 0.479-0.087 0.929-0.125 1.351-0.113 0.428 0.016 0.822 0.078 1.182 0.186 0.364 0.102 0.665 0.24 0.901 0.414v0c0.21 0.154 0.392 0.33 0.546 0.526 0.154 0.196 0.268 0.408 0.34 0.636 0.064 0.229 0.07 0.474 0.019 0.735-0.046 0.265-0.175 0.543-0.389 0.833v0c-0.253 0.344-0.54 0.593-0.86 0.748-0.315 0.158-0.627 0.256-0.937 0.293-0.31 0.038-0.598 0.041-0.866 0.01-0.269-0.04-0.478-0.078-0.626-0.113v0l0.197-0.538c0.022 0.016 0.127 0.048 0.316 0.095 0.189 0.048 0.413 0.064 0.673 0.048 0.264-0.021 0.543-0.09 0.836-0.206 0.297-0.122 0.56-0.338 0.79-0.651v0c0.265-0.36 0.365-0.71 0.298-1.048-0.057-0.34-0.241-0.625-0.552-0.855v0c-0.242-0.178-0.588-0.3-1.038-0.365-0.444-0.061-0.949-0.018-1.513 0.13-0.565 0.148-1.157 0.429-1.778 0.844-0.616 0.409-1.209 1.001-1.778 1.776v0c-0.566 0.769-0.863 1.455-0.891 2.056-0.022 0.605 0.198 1.078 0.66 1.418v0c0.231 0.17 0.502 0.27 0.812 0.299 0.305 0.025 0.63-0.005 0.975-0.091 0.336-0.085 0.679-0.218 1.028-0.4 0.359-0.184 0.702-0.391 1.031-0.623v0c0.174-0.237 0.411-0.497 0.712-0.782 0.291-0.283 0.621-0.551 0.988-0.802v0l0.52 0.73c-0.109 0.069-0.24 0.168-0.392 0.296-0.156 0.134-0.318 0.28-0.485 0.44-0.171 0.165-0.343 0.336-0.516 0.515-0.168 0.183-0.319 0.366-0.454 0.549v0c-0.431 0.586-0.669 1.033-0.713 1.341-0.049 0.304 0.069 0.56 0.354 0.771v0c0.167 0.123 0.374 0.18 0.62 0.17 0.248 0 0.576-0.078 0.982-0.235 0.41-0.163 0.913-0.418 1.51-0.768 0.602-0.345 1.342-0.799 2.221-1.363z" fill="#ffffff" data-fill-palette-color="accent"></path>
                              <path d="M195.756 60.283v0c-0.353-0.401-0.605-0.811-0.758-1.228-0.158-0.412-0.226-0.814-0.206-1.206 0.025-0.386 0.134-0.758 0.328-1.114 0.188-0.352 0.446-0.671 0.772-0.958v0c0.291-0.256 0.613-0.445 0.967-0.569 0.348-0.119 0.695-0.175 1.04-0.167 0.344 0.018 0.673 0.093 0.986 0.228 0.313 0.143 0.579 0.34 0.8 0.591v0c0.212 0.241 0.353 0.539 0.424 0.893 0.067 0.35 0.073 0.741 0.016 1.173v0l-0.559-0.122c0.06-0.337 0.06-0.64 0.002-0.908-0.063-0.274-0.173-0.501-0.332-0.682v0c-0.176-0.201-0.386-0.354-0.631-0.46-0.24-0.101-0.496-0.155-0.77-0.163-0.269-0.013-0.536 0.027-0.803 0.118-0.266 0.092-0.507 0.232-0.723 0.422v0c-0.276 0.242-0.494 0.51-0.655 0.802-0.166 0.297-0.262 0.608-0.288 0.932-0.021 0.33 0.028 0.669 0.147 1.018 0.129 0.349 0.345 0.697 0.65 1.043v0c0.423 0.482 0.895 0.792 1.416 0.929 0.522 0.129 1.056 0.139 1.602 0.033 0.546-0.107 1.088-0.315 1.623-0.625 0.54-0.306 1.041-0.661 1.503-1.067v0l1.626-1.428 0.798-0.701c-0.676 0.06-1.34-0.018-1.993-0.235-0.653-0.227-1.248-0.646-1.786-1.259v0c-0.234-0.266-0.422-0.567-0.566-0.903-0.143-0.345-0.207-0.716-0.19-1.112 0.026-0.396 0.159-0.815 0.401-1.259 0.237-0.448 0.624-0.908 1.161-1.38v0c0.366-0.322 0.782-0.598 1.247-0.828 0.464-0.221 0.948-0.393 1.453-0.516 0.51-0.128 1.028-0.201 1.554-0.218 0.526-0.018 1.033 0.022 1.519 0.119 0.49 0.103 0.948 0.265 1.374 0.487 0.43 0.227 0.802 0.518 1.114 0.874v0c0.194 0.221 0.333 0.45 0.417 0.688 0.088 0.242 0.137 0.48 0.145 0.712 0.004 0.237-0.018 0.465-0.065 0.684-0.047 0.219-0.108 0.419-0.181 0.599v0c0.36-0.147 0.668-0.262 0.924-0.345 0.256-0.083 0.461-0.143 0.615-0.18v0l0.155 0.557c-0.063 0.02-0.254 0.09-0.574 0.211-0.321 0.131-0.744 0.337-1.268 0.62-0.525 0.292-1.135 0.676-1.828 1.152-0.698 0.471-1.451 1.061-2.259 1.77v0c-0.181 0.159-0.377 0.335-0.588 0.53-0.211 0.195-0.427 0.389-0.648 0.583-0.226 0.198-0.447 0.392-0.663 0.581-0.211 0.195-0.405 0.369-0.58 0.523v0c-0.958 0.842-1.844 1.433-2.656 1.773-0.803 0.341-1.53 0.504-2.183 0.49-0.652-0.014-1.231-0.167-1.738-0.46-0.502-0.288-0.931-0.635-1.288-1.042zM202.2 55.704v0c0.207 0.236 0.439 0.424 0.695 0.563 0.256 0.14 0.524 0.237 0.804 0.293 0.28 0.056 0.57 0.077 0.869 0.064 0.303-0.009 0.604-0.051 0.903-0.126v0c0.858-0.683 1.635-1.236 2.329-1.659 0.699-0.418 1.317-0.757 1.855-1.015v0c0.122-0.196 0.223-0.404 0.303-0.627 0.08-0.212 0.125-0.434 0.136-0.665 0.015-0.226-0.016-0.453-0.091-0.68-0.066-0.227-0.193-0.448-0.383-0.664v0c-0.234-0.266-0.592-0.502-1.075-0.709-0.483-0.206-1.039-0.318-1.668-0.335-0.628-0.017-1.296 0.093-2.002 0.331-0.706 0.229-1.4 0.643-2.082 1.242v0c-0.336 0.295-0.614 0.606-0.835 0.933-0.216 0.331-0.353 0.666-0.412 1.002-0.064 0.332-0.044 0.674 0.061 1.026 0.101 0.347 0.298 0.689 0.593 1.026z" fill="#ffffff" data-fill-palette-color="accent"></path>
                              <path d="M214.545 75.227v0c-0.227-0.416-0.372-0.855-0.434-1.316-0.065-0.467-0.026-0.926 0.116-1.376 0.142-0.45 0.389-0.882 0.742-1.295 0.355-0.422 0.832-0.797 1.429-1.124v0c0.733-0.4 1.444-0.652 2.134-0.755 0.693-0.097 1.325-0.089 1.897 0.025 0.578 0.11 1.08 0.312 1.506 0.604 0.435 0.295 0.76 0.639 0.974 1.032v0c0.275 0.504 0.326 0.994 0.153 1.469-0.171 0.481-0.523 0.868-1.057 1.159v0c-0.451 0.247-0.908 0.386-1.37 0.418-0.468 0.035-0.911-0.016-1.328-0.153-0.417-0.137-0.799-0.347-1.143-0.631-0.345-0.283-0.623-0.618-0.835-1.005v0c-0.102-0.188-0.188-0.373-0.258-0.556-0.072-0.174-0.132-0.331-0.178-0.473v0c-0.478 0.322-0.859 0.656-1.143 1.001-0.289 0.348-0.492 0.695-0.608 1.04-0.113 0.351-0.154 0.693-0.124 1.027 0.039 0.336 0.139 0.651 0.299 0.944v0c0.199 0.363 0.471 0.652 0.816 0.866 0.351 0.211 0.741 0.367 1.17 0.469 0.431 0.107 0.894 0.166 1.387 0.178 0.49 0.006 0.977-0.009 1.46-0.044 0.48-0.041 0.941-0.096 1.383-0.163 0.443-0.067 0.837-0.126 1.182-0.177v0l0.136 0.542c-0.327 0.042-0.721 0.094-1.182 0.155-0.458 0.067-0.949 0.123-1.473 0.165-0.519 0.04-1.058 0.049-1.618 0.028-0.554-0.025-1.084-0.104-1.591-0.238-0.501-0.137-0.965-0.352-1.391-0.644-0.432-0.289-0.782-0.68-1.051-1.172zM222.435 71.304v0c-0.163-0.299-0.417-0.541-0.761-0.726-0.354-0.187-0.76-0.304-1.219-0.35-0.456-0.04-0.949-0.01-1.48 0.09-0.534 0.109-1.062 0.306-1.584 0.591v0c0.017 0.128 0.063 0.297 0.14 0.506 0.073 0.204 0.187 0.446 0.34 0.727v0c0.16 0.293 0.383 0.548 0.669 0.765 0.28 0.22 0.595 0.386 0.946 0.499 0.353 0.104 0.723 0.146 1.107 0.126 0.387-0.029 0.766-0.144 1.135-0.347v0c0.176-0.096 0.333-0.212 0.472-0.349 0.135-0.142 0.239-0.294 0.311-0.455 0.063-0.164 0.094-0.337 0.093-0.519-0.01-0.185-0.066-0.371-0.169-0.558z" fill="#ffffff" data-fill-palette-color="accent"></path>
                              <path d="M229.199 90.934v0c-0.34 0.005-0.636-0.004-0.887-0.026-0.244-0.024-0.478-0.058-0.7-0.103-0.225-0.051-0.442-0.114-0.654-0.191-0.211-0.076-0.443-0.163-0.696-0.261v0l0.074-0.138c0.586 0.047 1.132 0.078 1.639 0.093 0.507 0.015 1.013 0.016 1.518 0.004v0c0.154-0.207 0.37-0.404 0.648-0.593 0.276-0.195 0.629-0.356 1.057-0.485v0c0.384-0.115 0.718-0.153 1.002-0.113 0.292 0.045 0.468 0.166 0.528 0.364v0c0.031 0.102 0.013 0.216-0.055 0.341-0.075 0.12-0.183 0.237-0.324 0.348-0.141 0.112-0.308 0.215-0.503 0.309-0.2 0.102-0.414 0.187-0.645 0.256v0c-0.109 0.033-0.226 0.061-0.351 0.085-0.132 0.026-0.264 0.048-0.398 0.068-0.134 0.019-0.265 0.034-0.395 0.045-0.123 0.009-0.23 0.013-0.32 0.013v0c-0.029 0.065-0.042 0.163-0.037 0.293 0.005 0.131 0.036 0.293 0.093 0.485v0c0.102 0.339 0.243 0.621 0.422 0.846 0.173 0.227 0.359 0.394 0.559 0.501v0c0.251 0.071 0.446 0.127 0.584 0.17 0.136 0.036 0.24 0.067 0.311 0.094 0.071 0.027 0.117 0.052 0.138 0.074 0.019 0.015 0.034 0.042 0.045 0.081v0c0.029 0.096 0.027 0.184-0.005 0.263-0.032 0.079-0.099 0.134-0.201 0.165v0c-0.026 0.008-0.066 0.002-0.12-0.016-0.052-0.012-0.121-0.03-0.205-0.054v0c-0.655-0.207-1.337-0.319-2.046-0.336-0.711-0.023-1.464 0.085-2.257 0.323v0c-0.915 0.275-1.531 0.625-1.85 1.048-0.321 0.417-0.398 0.901-0.233 1.451v0c0.092 0.307 0.273 0.57 0.541 0.789 0.262 0.221 0.627 0.404 1.096 0.549 0.465 0.153 1.041 0.273 1.729 0.359 0.69 0.092 1.513 0.162 2.469 0.209v0l0.025 0.568c-1.241-0.045-2.274-0.128-3.099-0.25-0.831-0.12-1.507-0.279-2.027-0.478-0.514-0.201-0.907-0.453-1.179-0.754-0.27-0.295-0.467-0.648-0.589-1.057v0c-0.077-0.256-0.099-0.539-0.067-0.848 0.032-0.31 0.14-0.614 0.321-0.913 0.18-0.305 0.447-0.588 0.802-0.848 0.354-0.26 0.809-0.474 1.366-0.641v0c0.275-0.083 0.57-0.147 0.883-0.193 0.31-0.037 0.617-0.06 0.921-0.068 0.306-0.002 0.605 0.006 0.897 0.024 0.293 0.023 0.56 0.055 0.802 0.093v0c-0.25-0.274-0.43-0.596-0.542-0.967v0c-0.11-0.365-0.138-0.691-0.085-0.978z" fill="#ffffff" data-fill-palette-color="accent"></path>
                              <path d="M24.695 155.979v0c-0.419 0.136-0.77 0.344-1.051 0.624-0.281 0.28-0.51 0.614-0.687 1.001-0.179 0.381-0.319 0.805-0.421 1.273-0.101 0.468-0.188 0.959-0.26 1.474-0.066 0.513-0.129 1.035-0.188 1.566-0.058 0.538-0.129 1.066-0.214 1.586-0.085 0.519-0.197 1.018-0.337 1.498-0.139 0.48-0.324 0.919-0.553 1.316-0.234 0.406-0.523 0.759-0.869 1.06-0.345 0.301-0.768 0.533-1.27 0.695v0c-0.921 0.298-1.774 0.384-2.559 0.259-0.787-0.132-1.493-0.416-2.118-0.852-0.625-0.436-1.17-1.004-1.635-1.704-0.456-0.695-0.82-1.461-1.091-2.3v0c-0.238-0.737-0.368-1.464-0.389-2.18-0.021-0.716 0.06-1.378 0.243-1.984 0.183-0.607 0.466-1.13 0.85-1.57 0.382-0.446 0.856-0.761 1.422-0.944v0c0.496-0.16 0.943-0.221 1.341-0.181 0.401 0.046 0.742 0.125 1.025 0.237 0.288 0.11 0.51 0.232 0.665 0.364 0.161 0.13 0.248 0.204 0.261 0.221v0l-0.454 0.421c-0.01-0.011-0.078-0.066-0.201-0.167-0.13-0.098-0.308-0.192-0.533-0.28-0.232-0.087-0.508-0.148-0.828-0.185-0.325-0.028-0.688 0.022-1.088 0.152v0c-0.407 0.132-0.747 0.326-1.023 0.583-0.268 0.255-0.481 0.552-0.638 0.891-0.157 0.339-0.268 0.701-0.333 1.086-0.063 0.392-0.089 0.787-0.08 1.184 0.009 0.397 0.046 0.782 0.11 1.155 0.066 0.379 0.15 0.724 0.25 1.035v0c0.257 0.794 0.592 1.483 1.005 2.065 0.407 0.584 0.858 1.046 1.353 1.384 0.497 0.345 1.018 0.566 1.562 0.663 0.538 0.1 1.073 0.064 1.607-0.109v0c0.604-0.195 1.084-0.491 1.44-0.887 0.348-0.4 0.622-0.865 0.823-1.393 0.201-0.528 0.348-1.106 0.441-1.732 0.094-0.62 0.177-1.254 0.248-1.901 0.073-0.641 0.164-1.274 0.271-1.899 0.111-0.633 0.283-1.218 0.516-1.756 0.233-0.539 0.549-1.016 0.947-1.433 0.401-0.41 0.938-0.724 1.612-0.942v0c0.743-0.24 1.464-0.333 2.163-0.279 0.697 0.049 1.339 0.223 1.928 0.525 0.593 0.293 1.106 0.695 1.538 1.208 0.441 0.517 0.773 1.122 0.997 1.814v0c0.226 0.699 0.342 1.339 0.347 1.92 0.01 0.572-0.073 1.087-0.248 1.544-0.171 0.448-0.431 0.827-0.78 1.137-0.351 0.303-0.771 0.534-1.261 0.691v0c-0.4 0.129-0.806 0.211-1.215 0.246-0.406 0.026-0.78 0.031-1.122 0.015-0.336-0.018-0.614-0.044-0.836-0.077-0.217-0.042-0.339-0.062-0.367-0.06v0l0.123-0.598c0.006-0.002 0.11 0.014 0.31 0.047 0.205 0.025 0.461 0.047 0.769 0.067 0.312 0.011 0.658 0.005 1.036-0.019 0.378-0.024 0.748-0.095 1.111-0.212v0c0.407-0.132 0.752-0.324 1.035-0.576 0.287-0.261 0.5-0.579 0.639-0.954 0.132-0.373 0.191-0.809 0.176-1.31-0.023-0.505-0.135-1.069-0.336-1.692v0c-0.187-0.578-0.459-1.083-0.816-1.515-0.351-0.434-0.756-0.777-1.217-1.028-0.469-0.256-0.969-0.413-1.501-0.473-0.538-0.058-1.087 0.004-1.645 0.185z" fill="#ffffff" data-fill-palette-color="accent"></path>
                              <path d="M34.393 190.661l0.152 0.452c-0.913 0.214-1.689 0.37-2.327 0.467-0.644 0.102-1.187 0.149-1.63 0.144-0.437-0.01-0.79-0.074-1.059-0.193-0.26-0.117-0.471-0.299-0.632-0.545v0c-0.194-0.296-0.256-0.618-0.188-0.966 0.068-0.348 0.302-0.692 0.701-1.033v0c-0.592 0.084-1.142 0.053-1.652-0.092-0.504-0.149-0.923-0.478-1.255-0.987v0c-0.179-0.274-0.299-0.567-0.359-0.878-0.069-0.314-0.06-0.635 0.028-0.964 0.083-0.325 0.245-0.651 0.487-0.977 0.236-0.322 0.57-0.624 1-0.905v0c0.436-0.285 0.883-0.498 1.342-0.638 0.455-0.146 0.9-0.234 1.336-0.263 0.436-0.029 0.856-0.009 1.261 0.062 0.405 0.07 0.776 0.175 1.114 0.313 0.338 0.138 0.634 0.304 0.888 0.497 0.259 0.189 0.459 0.39 0.597 0.603v0c0.121 0.184 0.215 0.378 0.284 0.58 0.063 0.206 0.088 0.409 0.075 0.609-0.013 0.2-0.079 0.398-0.197 0.596-0.118 0.197-0.306 0.38-0.564 0.548v0c-0.302 0.197-0.606 0.312-0.912 0.344-0.3 0.029-0.579 0.011-0.835-0.052-0.257-0.063-0.488-0.148-0.693-0.253-0.199-0.109-0.351-0.201-0.456-0.277v0l0.309-0.369c0.015 0.022 0.089 0.081 0.224 0.177 0.14 0.092 0.314 0.17 0.523 0.232 0.218 0.065 0.463 0.092 0.735 0.082 0.267-0.007 0.54-0.102 0.82-0.284v0c0.313-0.205 0.498-0.453 0.554-0.745 0.051-0.288-0.013-0.57-0.192-0.844v0c-0.139-0.212-0.377-0.412-0.715-0.598-0.343-0.183-0.762-0.3-1.258-0.351-0.492-0.045-1.045 0.001-1.657 0.138-0.614 0.146-1.265 0.444-1.953 0.894v0c-0.682 0.446-1.123 0.906-1.324 1.38-0.201 0.474-0.168 0.915 0.099 1.323v0c0.135 0.207 0.324 0.367 0.565 0.48 0.238 0.108 0.505 0.181 0.801 0.219 0.292 0.032 0.609 0.029 0.951-0.011 0.332-0.041 0.666-0.104 1.001-0.188v0c0.212-0.139 0.478-0.276 0.796-0.412 0.32-0.145 0.663-0.262 1.029-0.349v0l0.198 0.743c-0.106 0.021-0.239 0.061-0.401 0.119-0.162 0.058-0.335 0.123-0.518 0.195-0.186 0.082-0.371 0.171-0.556 0.267-0.194 0.095-0.371 0.195-0.533 0.301v0c-0.514 0.336-0.836 0.618-0.966 0.847-0.126 0.234-0.107 0.477 0.057 0.729v0c0.095 0.145 0.241 0.253 0.439 0.323 0.201 0.076 0.486 0.109 0.855 0.1 0.372-0.004 0.849-0.056 1.429-0.157 0.584-0.095 1.312-0.239 2.182-0.433z" fill="#ffffff" data-fill-palette-color="accent"></path>
                              <path d="M50.404 208.367l0.248 0.407c-0.581 0.256-1.097 0.458-1.548 0.607-0.441 0.149-0.834 0.248-1.178 0.297-0.344 0.048-0.642 0.039-0.893-0.027-0.256-0.062-0.478-0.183-0.665-0.365v0c-0.255-0.246-0.392-0.536-0.412-0.871-0.025-0.34 0.062-0.646 0.26-0.918v0c-0.516 0.217-0.999 0.386-1.45 0.506-0.461 0.121-0.88 0.199-1.257 0.234-0.377 0.035-0.701 0.029-0.971-0.018-0.27-0.047-0.467-0.131-0.593-0.252v0c-0.101-0.097-0.186-0.264-0.256-0.499-0.065-0.23-0.073-0.511-0.022-0.843 0.06-0.332 0.2-0.707 0.42-1.126 0.22-0.419 0.559-0.867 1.019-1.342v0c0.302-0.312 0.602-0.579 0.9-0.802 0.298-0.222 0.565-0.406 0.798-0.552v0c0.285-0.17 0.557-0.307 0.815-0.411v0l0.296 0.356c-0.266 0.217-0.514 0.436-0.746 0.658-0.232 0.221-0.451 0.438-0.655 0.648v0c-0.455 0.471-0.837 0.914-1.146 1.331-0.314 0.412-0.558 0.775-0.733 1.089-0.179 0.32-0.295 0.584-0.347 0.792-0.048 0.213-0.039 0.353 0.028 0.418v0c0.077 0.074 0.25 0.116 0.519 0.126 0.269 0.01 0.597-0.017 0.984-0.081 0.391-0.059 0.821-0.158 1.291-0.298 0.475-0.136 0.953-0.309 1.436-0.521v0c0.088-0.129 0.196-0.28 0.326-0.452 0.134-0.177 0.257-0.323 0.368-0.438v0c0.362-0.375 0.683-0.645 0.963-0.81 0.285-0.161 0.529-0.259 0.732-0.296 0.207-0.032 0.375-0.023 0.504 0.027 0.119 0.05 0.202 0.098 0.25 0.144v0c0.154 0.148 0.119 0.338-0.104 0.569v0c-0.116 0.12-0.272 0.248-0.468 0.383-0.196 0.145-0.408 0.288-0.637 0.429-0.229 0.141-0.465 0.275-0.709 0.402-0.243 0.127-0.475 0.237-0.695 0.331v0c-0.195 0.202-0.336 0.386-0.423 0.552-0.087 0.176-0.134 0.34-0.14 0.492-0.007 0.151 0.017 0.29 0.071 0.416 0.059 0.122 0.136 0.229 0.232 0.322v0c0.245 0.237 0.659 0.303 1.243 0.199 0.579-0.1 1.361-0.37 2.345-0.813z" fill="#ffffff" data-fill-palette-color="accent"></path>
                              <path d="M62.439 224.187v0c-0.341-0.21-0.634-0.473-0.88-0.788-0.239-0.312-0.403-0.664-0.491-1.055-0.085-0.397-0.085-0.824 0-1.282 0.085-0.457 0.28-0.933 0.584-1.428v0c0.374-0.609 0.795-1.095 1.262-1.459 0.47-0.369 0.942-0.632 1.414-0.788 0.467-0.16 0.923-0.22 1.37-0.181 0.444 0.03 0.828 0.145 1.152 0.344v0c0.415 0.255 0.659 0.598 0.733 1.027 0.077 0.423-0.02 0.854-0.289 1.293v0c-0.234 0.381-0.515 0.679-0.843 0.892-0.325 0.223-0.673 0.374-1.043 0.453-0.366 0.073-0.737 0.076-1.112 0.01-0.373-0.057-0.721-0.185-1.045-0.385v0c-0.154-0.094-0.296-0.194-0.428-0.298-0.126-0.101-0.236-0.196-0.33-0.286v0c-0.219 0.445-0.359 0.857-0.42 1.236-0.066 0.375-0.067 0.715-0.004 1.021 0.06 0.311 0.172 0.58 0.338 0.808 0.168 0.237 0.374 0.43 0.619 0.58v0c0.301 0.185 0.626 0.283 0.973 0.293 0.347 0.01 0.702-0.039 1.065-0.145 0.357-0.109 0.723-0.265 1.098-0.465 0.365-0.199 0.717-0.414 1.055-0.645 0.338-0.231 0.656-0.467 0.953-0.708 0.303-0.237 0.57-0.449 0.802-0.635v0l0.33 0.344c-0.222 0.169-0.49 0.377-0.806 0.621-0.31 0.249-0.649 0.495-1.018 0.738-0.367 0.253-0.76 0.489-1.178 0.711-0.424 0.218-0.851 0.382-1.281 0.494-0.43 0.112-0.865 0.15-1.305 0.115-0.441-0.036-0.866-0.18-1.275-0.432zM66.621 217.962v0c-0.25-0.154-0.542-0.228-0.876-0.221-0.337 0.012-0.685 0.1-1.044 0.263-0.356 0.158-0.709 0.387-1.059 0.69-0.354 0.308-0.662 0.675-0.924 1.101v0c0.07 0.09 0.178 0.196 0.322 0.316 0.136 0.123 0.321 0.256 0.554 0.4v0c0.239 0.147 0.511 0.24 0.817 0.279 0.302 0.045 0.607 0.032 0.916-0.037 0.305-0.063 0.594-0.188 0.865-0.373 0.277-0.182 0.508-0.424 0.693-0.726v0c0.091-0.148 0.159-0.302 0.203-0.464 0.044-0.161 0.056-0.314 0.036-0.46-0.017-0.151-0.065-0.295-0.146-0.431-0.084-0.13-0.203-0.243-0.357-0.337z" fill="#ffffff" data-fill-palette-color="accent"></path>
                              <path d="M118.848 244.022l-0.233 0.409c-0.013-0.001-0.138-0.031-0.374-0.088-0.236-0.058-0.525-0.181-0.869-0.37-0.337-0.189-0.699-0.457-1.086-0.806-0.381-0.348-0.72-0.805-1.018-1.372-0.298-0.567-0.525-1.268-0.682-2.103-0.151-0.828-0.168-1.816-0.051-2.966v0c0.044-0.432 0.12-0.944 0.227-1.538 0.108-0.6 0.24-1.238 0.396-1.913 0.149-0.676 0.311-1.375 0.485-2.095 0.174-0.721 0.346-1.421 0.516-2.102 0.177-0.68 0.346-1.324 0.509-1.932 0.163-0.614 0.305-1.15 0.425-1.608v0c-0.138 0.369-0.286 0.77-0.444 1.203-0.158 0.434-0.326 0.89-0.502 1.369-0.176 0.479-0.354 0.971-0.533 1.476-0.186 0.505-0.371 1.009-0.557 1.514v0c-0.187 0.518-0.393 1.058-0.618 1.619-0.225 0.561-0.466 1.114-0.722 1.658-0.263 0.537-0.543 1.049-0.841 1.536-0.291 0.481-0.605 0.898-0.943 1.253-0.338 0.355-0.692 0.628-1.06 0.819-0.376 0.197-0.766 0.274-1.172 0.233v0c-0.226-0.023-0.437-0.088-0.635-0.196-0.197-0.107-0.361-0.275-0.492-0.503-0.132-0.222-0.226-0.513-0.284-0.875-0.051-0.354-0.049-0.801 0.006-1.338v0c0.032-0.312 0.084-0.693 0.156-1.142 0.073-0.449 0.159-0.94 0.261-1.474 0.095-0.534 0.203-1.1 0.324-1.699 0.121-0.599 0.243-1.204 0.366-1.816 0.129-0.611 0.255-1.216 0.376-1.814 0.128-0.598 0.247-1.17 0.355-1.716v0c-0.29 0.81-0.638 1.821-1.043 3.036-0.412 1.213-0.869 2.573-1.372 4.079v0c-0.424 1.266-0.847 2.384-1.268 3.355-0.421 0.971-0.823 1.816-1.204 2.536-0.389 0.719-0.752 1.32-1.09 1.802-0.332 0.49-0.624 0.883-0.875 1.18-0.245 0.297-0.441 0.512-0.589 0.645-0.154 0.125-0.231 0.195-0.233 0.208v0l-0.385-0.271c0.001-0.007 0.083-0.122 0.246-0.348 0.157-0.226 0.371-0.543 0.641-0.952 0.263-0.41 0.565-0.906 0.907-1.488 0.348-0.582 0.709-1.227 1.083-1.934 0.374-0.707 0.754-1.474 1.14-2.301 0.386-0.827 0.747-1.696 1.081-2.608v0c0.493-1.286 0.937-2.476 1.33-3.571 0.393-1.094 0.728-2.044 1.005-2.848 0.282-0.797 0.501-1.423 0.654-1.876 0.154-0.454 0.231-0.685 0.231-0.692v0l0.454 0.097c-0.001 0.013-0.023 0.196-0.066 0.547-0.036 0.359-0.087 0.82-0.151 1.384-0.064 0.564-0.132 1.202-0.205 1.913-0.079 0.71-0.155 1.427-0.229 2.151-0.08 0.724-0.154 1.417-0.222 2.082-0.074 0.664-0.136 1.235-0.184 1.713v0c-0.056 0.551-0.087 1.055-0.093 1.511 0.001 0.457 0.034 0.849 0.101 1.179 0.067 0.329 0.165 0.587 0.294 0.775 0.129 0.188 0.299 0.292 0.512 0.314v0c0.173 0.018 0.394-0.077 0.663-0.285 0.263-0.208 0.564-0.56 0.903-1.056 0.339-0.496 0.711-1.149 1.116-1.961 0.405-0.818 0.841-1.831 1.306-3.039v0c0.156-0.414 0.334-0.872 0.533-1.376 0.199-0.503 0.418-1.075 0.658-1.715 0.24-0.64 0.5-1.355 0.782-2.146 0.288-0.783 0.596-1.665 0.923-2.645v0l0.452 0.117c-0.351 1.871-0.689 3.733-1.012 5.586-0.329 1.853-0.59 3.723-0.782 5.61v0c-0.145 1.422-0.191 2.669-0.139 3.741 0.046 1.065 0.184 1.986 0.414 2.761 0.237 0.776 0.557 1.419 0.961 1.93 0.404 0.518 0.892 0.93 1.466 1.237z" fill="#ffffff" data-fill-palette-color="accent"></path>
                              <path d="M144.318 233.337l0.474 0.046c-0.177 0.921-0.351 1.693-0.522 2.316-0.17 0.629-0.348 1.145-0.534 1.546-0.187 0.395-0.39 0.691-0.608 0.889-0.213 0.19-0.465 0.308-0.755 0.354v0c-0.349 0.056-0.669-0.018-0.959-0.222-0.29-0.204-0.509-0.558-0.657-1.061v0c-0.165 0.574-0.418 1.065-0.758 1.471-0.342 0.4-0.813 0.648-1.413 0.743v0c-0.323 0.052-0.639 0.042-0.948-0.03-0.315-0.065-0.604-0.204-0.869-0.419-0.263-0.208-0.494-0.489-0.693-0.843-0.198-0.347-0.337-0.775-0.418-1.282v0c-0.082-0.514-0.094-1.01-0.035-1.486 0.052-0.475 0.154-0.917 0.304-1.327 0.151-0.41 0.341-0.785 0.571-1.126 0.229-0.341 0.476-0.638 0.74-0.89 0.264-0.252 0.536-0.454 0.816-0.607 0.279-0.16 0.543-0.26 0.794-0.3v0c0.218-0.035 0.433-0.042 0.645-0.022 0.214 0.027 0.41 0.087 0.587 0.18 0.177 0.093 0.332 0.234 0.464 0.423 0.132 0.189 0.222 0.435 0.27 0.738v0c0.057 0.356 0.038 0.68-0.057 0.973-0.096 0.286-0.226 0.533-0.389 0.741-0.163 0.209-0.334 0.385-0.514 0.529-0.181 0.137-0.327 0.238-0.438 0.304v0l-0.211-0.433c0.026-0.004 0.111-0.048 0.253-0.132 0.141-0.09 0.283-0.218 0.425-0.383 0.148-0.173 0.273-0.385 0.375-0.638 0.103-0.246 0.127-0.534 0.074-0.864v0c-0.059-0.369-0.211-0.639-0.454-0.81-0.243-0.164-0.526-0.22-0.849-0.168v0c-0.251 0.04-0.53 0.176-0.837 0.408-0.307 0.239-0.584 0.574-0.833 1.006-0.242 0.431-0.425 0.954-0.55 1.569-0.117 0.621-0.111 1.337 0.019 2.148v0c0.129 0.805 0.369 1.395 0.72 1.771 0.351 0.377 0.767 0.526 1.249 0.45v0c0.244-0.039 0.467-0.146 0.669-0.321 0.195-0.173 0.371-0.387 0.526-0.642 0.149-0.254 0.275-0.544 0.378-0.872 0.098-0.32 0.176-0.651 0.237-0.991v0c-0.04-0.251-0.057-0.549-0.052-0.895-0.002-0.351 0.031-0.712 0.1-1.081v0l0.76 0.121c-0.024 0.105-0.042 0.243-0.055 0.415-0.013 0.171-0.024 0.356-0.033 0.553-0.001 0.203 0.005 0.408 0.017 0.616 0.007 0.215 0.026 0.418 0.057 0.61v0c0.097 0.607 0.224 1.016 0.38 1.228 0.162 0.211 0.392 0.292 0.688 0.244v0c0.171-0.027 0.33-0.117 0.475-0.268 0.151-0.153 0.298-0.399 0.439-0.74 0.148-0.342 0.295-0.798 0.44-1.369 0.152-0.572 0.317-1.295 0.495-2.17z" fill="#ffffff" data-fill-palette-color="accent"></path>
                              <path d="M160.143 228.815l-0.472 0.065c-0.006-0.33 0.002-0.651 0.024-0.964 0.016-0.31 0.058-0.595 0.124-0.854 0.066-0.259 0.159-0.481 0.277-0.667 0.122-0.195 0.291-0.337 0.507-0.426v0c0.099-0.041 0.222-0.066 0.369-0.077 0.156-0.007 0.32 0.03 0.491 0.111 0.177 0.079 0.357 0.225 0.539 0.439 0.185 0.22 0.362 0.533 0.53 0.94v0c0.087 0.21 0.171 0.449 0.254 0.719 0.086 0.261 0.168 0.52 0.245 0.777v0c0.029-0.576 0.086-1.076 0.17-1.502 0.084-0.425 0.194-0.781 0.328-1.067 0.132-0.293 0.285-0.526 0.459-0.7 0.172-0.179 0.365-0.314 0.582-0.403v0c0.093-0.038 0.213-0.063 0.36-0.073 0.147-0.01 0.3 0.017 0.456 0.082 0.157 0.065 0.314 0.174 0.471 0.326 0.153 0.161 0.292 0.392 0.417 0.695v0c0.1 0.241 0.181 0.489 0.243 0.745 0.063 0.256 0.118 0.504 0.167 0.744 0.051 0.246 0.1 0.479 0.148 0.698 0.045 0.213 0.099 0.396 0.163 0.55v0c0.151 0.364 0.333 0.614 0.548 0.749 0.211 0.144 0.453 0.16 0.724 0.048v0c0.216-0.089 0.388-0.258 0.517-0.507 0.131-0.242 0.23-0.529 0.295-0.859 0.068-0.324 0.109-0.67 0.124-1.038 0.014-0.367 0.017-0.711 0.006-1.032-0.012-0.327-0.026-0.614-0.041-0.861-0.015-0.247-0.027-0.415-0.036-0.506v0l0.481-0.069c0.002 0.303 0.012 0.631 0.028 0.986 0.01 0.357 0.013 0.721 0.007 1.092-0.012 0.373-0.037 0.741-0.074 1.104-0.038 0.363-0.108 0.699-0.212 1.009-0.106 0.304-0.243 0.574-0.413 0.81-0.172 0.23-0.397 0.403-0.675 0.518v0c-0.235 0.097-0.457 0.135-0.668 0.114-0.209-0.015-0.4-0.077-0.575-0.185-0.181-0.106-0.346-0.251-0.494-0.435-0.145-0.193-0.267-0.41-0.367-0.651v0c-0.112-0.272-0.206-0.558-0.28-0.86-0.068-0.304-0.128-0.598-0.179-0.88-0.054-0.288-0.106-0.553-0.155-0.792-0.043-0.243-0.094-0.438-0.155-0.586v0c-0.094-0.228-0.208-0.38-0.34-0.456-0.132-0.075-0.276-0.081-0.43-0.017v0c-0.21 0.087-0.385 0.249-0.525 0.488-0.136 0.23-0.246 0.514-0.33 0.852-0.081 0.33-0.135 0.695-0.164 1.098-0.031 0.396-0.047 0.796-0.046 1.2 0.001 0.404 0.011 0.805 0.031 1.201 0.023 0.388 0.046 0.74 0.068 1.056 0.028 0.313 0.053 0.582 0.072 0.805 0.017 0.217 0.027 0.354 0.029 0.411v0l-0.684 0.153c-0.09-0.462-0.197-0.948-0.322-1.461-0.122-0.506-0.252-1.002-0.388-1.487-0.138-0.492-0.279-0.954-0.422-1.387-0.145-0.439-0.285-0.821-0.42-1.148v0c-0.184-0.444-0.337-0.735-0.459-0.873-0.126-0.129-0.265-0.161-0.419-0.097v0c-0.13 0.054-0.233 0.154-0.31 0.301-0.076 0.147-0.131 0.321-0.163 0.523-0.03 0.207-0.045 0.441-0.046 0.702-0.003 0.254 0 0.524 0.01 0.809z" fill="#ffffff" data-fill-palette-color="accent"></path>
                              <path d="M189.966 211.843l0.443-0.174c0.259 0.901 0.454 1.668 0.583 2.301 0.134 0.638 0.208 1.178 0.225 1.621 0.012 0.437-0.034 0.793-0.14 1.068-0.104 0.266-0.275 0.485-0.513 0.657v0c-0.286 0.208-0.605 0.287-0.955 0.237-0.351-0.051-0.706-0.267-1.066-0.649v0c0.113 0.587 0.109 1.138-0.011 1.655-0.124 0.511-0.431 0.945-0.923 1.303v0c-0.265 0.192-0.551 0.327-0.859 0.402-0.31 0.085-0.631 0.092-0.964 0.02-0.329-0.066-0.662-0.212-1-0.438-0.333-0.22-0.651-0.538-0.953-0.954v0c-0.306-0.421-0.541-0.858-0.704-1.308-0.168-0.447-0.278-0.888-0.33-1.322-0.051-0.434-0.052-0.854-0.001-1.262 0.05-0.408 0.136-0.784 0.257-1.128 0.121-0.344 0.272-0.648 0.452-0.912 0.176-0.269 0.367-0.477 0.572-0.626v0c0.178-0.13 0.367-0.234 0.566-0.313 0.203-0.073 0.404-0.108 0.605-0.105 0.2 0.003 0.402 0.059 0.604 0.167 0.203 0.109 0.395 0.287 0.576 0.536v0c0.212 0.292 0.342 0.589 0.389 0.893 0.044 0.299 0.04 0.578-0.01 0.838-0.051 0.26-0.123 0.494-0.219 0.704-0.099 0.204-0.184 0.361-0.253 0.469v0l-0.385-0.29c0.022-0.016 0.077-0.093 0.166-0.232 0.085-0.144 0.154-0.322 0.206-0.534 0.054-0.221 0.069-0.467 0.045-0.739-0.02-0.266-0.128-0.534-0.325-0.804v0c-0.22-0.302-0.477-0.475-0.771-0.517-0.291-0.036-0.568 0.042-0.833 0.235v0c-0.205 0.149-0.393 0.397-0.562 0.743-0.165 0.352-0.261 0.776-0.288 1.274-0.021 0.494 0.053 1.043 0.221 1.648 0.177 0.606 0.507 1.242 0.989 1.906v0c0.479 0.659 0.961 1.077 1.445 1.254 0.484 0.177 0.923 0.122 1.317-0.165v0c0.2-0.145 0.35-0.341 0.451-0.589 0.096-0.243 0.155-0.513 0.178-0.811 0.018-0.294-0.002-0.61-0.058-0.948-0.058-0.329-0.137-0.66-0.238-0.991v0c-0.149-0.205-0.3-0.463-0.451-0.775-0.161-0.312-0.294-0.649-0.4-1.009v0l0.733-0.236c0.027 0.105 0.073 0.236 0.138 0.395 0.066 0.159 0.139 0.328 0.221 0.508 0.091 0.182 0.189 0.362 0.295 0.541 0.104 0.189 0.213 0.361 0.327 0.518v0c0.361 0.497 0.659 0.805 0.894 0.923 0.24 0.114 0.482 0.083 0.725-0.094v0c0.14-0.102 0.241-0.254 0.301-0.454 0.066-0.205 0.085-0.491 0.057-0.859-0.023-0.372-0.098-0.845-0.228-1.42-0.124-0.579-0.304-1.298-0.541-2.158z" fill="#ffffff" data-fill-palette-color="accent"></path>
                              <path d="M211.585 206.907v0c-0.305 0.346-0.625 0.602-0.959 0.77-0.334 0.177-0.666 0.276-0.997 0.296-0.329 0.03-0.654-0.016-0.973-0.137-0.316-0.127-0.614-0.314-0.895-0.561v0c-0.25-0.221-0.446-0.469-0.586-0.744-0.141-0.285-0.225-0.573-0.253-0.864-0.023-0.297 0.006-0.582 0.088-0.858 0.082-0.284 0.215-0.532 0.401-0.742v0c0.186-0.21 0.422-0.362 0.709-0.456 0.292-0.099 0.625-0.148 0.999-0.148v0l-0.041 0.485c-0.294-0.01-0.552 0.025-0.774 0.106-0.222 0.08-0.402 0.198-0.538 0.353v0c-0.15 0.17-0.254 0.364-0.311 0.58-0.067 0.217-0.088 0.439-0.065 0.664 0.019 0.231 0.081 0.454 0.184 0.67 0.108 0.211 0.255 0.398 0.44 0.562v0c0.235 0.208 0.487 0.367 0.754 0.477 0.262 0.107 0.535 0.151 0.817 0.134 0.278-0.013 0.557-0.092 0.837-0.237 0.28-0.145 0.55-0.366 0.81-0.662v0c0.362-0.411 0.572-0.84 0.629-1.288 0.061-0.453 0.016-0.907-0.135-1.362-0.151-0.445-0.386-0.879-0.707-1.304-0.315-0.42-0.67-0.805-1.066-1.154v0l-1.383-1.219-0.676-0.596c0.125 0.565 0.13 1.135 0.015 1.71-0.12 0.571-0.41 1.116-0.869 1.637v0c-0.199 0.225-0.433 0.42-0.702 0.583-0.274 0.159-0.581 0.249-0.92 0.271-0.334 0.026-0.705-0.039-1.112-0.193-0.398-0.155-0.825-0.433-1.28-0.835v0c-0.316-0.278-0.594-0.599-0.834-0.962-0.24-0.363-0.44-0.753-0.599-1.169-0.168-0.415-0.287-0.845-0.358-1.291-0.071-0.445-0.091-0.877-0.06-1.295 0.03-0.428 0.118-0.835 0.264-1.223 0.147-0.378 0.352-0.718 0.617-1.018v0c0.168-0.19 0.346-0.336 0.534-0.438 0.197-0.102 0.394-0.169 0.59-0.201 0.197-0.031 0.39-0.039 0.581-0.022 0.19 0.016 0.367 0.048 0.531 0.094v0c-0.17-0.292-0.301-0.542-0.395-0.748-0.093-0.207-0.165-0.373-0.216-0.498v0l0.45-0.191c0.017 0.051 0.098 0.207 0.242 0.467 0.144 0.251 0.366 0.585 0.666 1.002 0.3 0.407 0.689 0.879 1.168 1.417 0.469 0.538 1.047 1.11 1.733 1.715v0c0.155 0.137 0.328 0.285 0.518 0.443 0.19 0.158 0.377 0.319 0.562 0.483 0.19 0.168 0.378 0.333 0.564 0.497 0.19 0.158 0.357 0.302 0.502 0.429v0c0.816 0.72 1.411 1.404 1.783 2.053 0.376 0.644 0.596 1.242 0.66 1.797 0.054 0.555-0.014 1.061-0.203 1.517-0.189 0.457-0.436 0.858-0.741 1.204zM207.016 201.956v0c0.177-0.2 0.31-0.417 0.399-0.65 0.089-0.233 0.143-0.47 0.161-0.713 0.018-0.242 0.005-0.49-0.04-0.742-0.044-0.253-0.112-0.499-0.202-0.74v0c-0.67-0.653-1.221-1.25-1.653-1.791-0.432-0.55-0.787-1.036-1.064-1.459v0c-0.176-0.084-0.362-0.145-0.558-0.185-0.192-0.045-0.385-0.059-0.578-0.042-0.194 0.007-0.382 0.055-0.566 0.142-0.184 0.087-0.357 0.224-0.52 0.409v0c-0.194 0.22-0.354 0.547-0.478 0.981-0.12 0.429-0.156 0.909-0.108 1.441 0.057 0.531 0.222 1.081 0.494 1.651 0.273 0.579 0.7 1.125 1.281 1.637v0c0.281 0.247 0.572 0.447 0.875 0.598 0.298 0.147 0.596 0.228 0.895 0.241 0.29 0.015 0.577-0.039 0.863-0.16 0.281-0.126 0.547-0.332 0.799-0.618z" fill="#ffffff" data-fill-palette-color="accent"></path>
                              <path d="M222.165 181.942v0c-0.192 0.352-0.439 0.658-0.741 0.919-0.299 0.255-0.642 0.437-1.028 0.546-0.392 0.105-0.819 0.128-1.28 0.067-0.461-0.061-0.947-0.231-1.457-0.51v0c-0.627-0.342-1.135-0.737-1.522-1.184-0.393-0.45-0.68-0.907-0.861-1.371-0.184-0.458-0.268-0.911-0.252-1.359 0.007-0.445 0.102-0.835 0.284-1.168v0c0.233-0.428 0.563-0.69 0.988-0.785 0.419-0.099 0.854-0.025 1.305 0.221v0c0.393 0.214 0.705 0.479 0.936 0.796 0.24 0.313 0.408 0.653 0.506 1.018 0.092 0.362 0.114 0.732 0.068 1.109-0.037 0.375-0.147 0.73-0.33 1.064v0c-0.086 0.158-0.178 0.306-0.276 0.443-0.094 0.131-0.184 0.246-0.268 0.345v0c0.456 0.196 0.875 0.314 1.256 0.354 0.378 0.046 0.718 0.03 1.02-0.049 0.308-0.076 0.571-0.202 0.789-0.379 0.228-0.18 0.41-0.396 0.548-0.649v0c0.17-0.311 0.25-0.64 0.241-0.986-0.008-0.347-0.075-0.699-0.2-1.056-0.128-0.351-0.302-0.709-0.522-1.073-0.217-0.354-0.45-0.695-0.698-1.02-0.248-0.326-0.5-0.631-0.757-0.914-0.253-0.29-0.478-0.546-0.676-0.769v0l0.326-0.347c0.181 0.213 0.402 0.47 0.663 0.773 0.264 0.296 0.528 0.623 0.79 0.978 0.271 0.353 0.528 0.733 0.77 1.14 0.239 0.412 0.426 0.83 0.561 1.252 0.134 0.423 0.195 0.856 0.182 1.298-0.013 0.442-0.134 0.874-0.365 1.296zM215.731 178.089v0c-0.141 0.258-0.199 0.553-0.175 0.886 0.03 0.336 0.136 0.679 0.317 1.029 0.176 0.347 0.424 0.688 0.744 1.022 0.326 0.337 0.708 0.626 1.148 0.866v0c0.086-0.075 0.186-0.188 0.299-0.339 0.116-0.142 0.239-0.334 0.37-0.574v0c0.134-0.246 0.213-0.523 0.236-0.83 0.029-0.304 0.001-0.608-0.084-0.913-0.079-0.302-0.218-0.583-0.418-0.844-0.197-0.267-0.45-0.485-0.761-0.655v0c-0.152-0.083-0.31-0.143-0.473-0.178-0.163-0.036-0.317-0.04-0.461-0.012-0.15 0.025-0.291 0.081-0.423 0.168-0.126 0.091-0.232 0.216-0.319 0.374z" fill="#ffffff" data-fill-palette-color="accent"></path>
                              <path d="M224.975 159.907v0c0.24 0.154 0.445 0.298 0.614 0.432 0.163 0.132 0.315 0.267 0.455 0.406 0.134 0.137 0.258 0.282 0.373 0.434 0.115 0.152 0.238 0.325 0.37 0.516v0l-0.112 0.061c-0.397-0.305-0.772-0.583-1.123-0.832-0.359-0.245-0.718-0.48-1.077-0.704v0c-0.215 0.069-0.463 0.107-0.744 0.114-0.289 0.012-0.616-0.036-0.981-0.143v0c-0.327-0.096-0.584-0.228-0.771-0.395-0.181-0.165-0.247-0.331-0.198-0.497v0c0.026-0.09 0.094-0.164 0.201-0.223 0.106-0.052 0.234-0.084 0.384-0.095 0.15-0.012 0.319-0.007 0.507 0.014 0.189 0.021 0.382 0.061 0.581 0.119v0c0.09 0.026 0.184 0.061 0.283 0.104 0.105 0.045 0.21 0.09 0.315 0.135 0.105 0.045 0.205 0.095 0.3 0.151 0.097 0.049 0.177 0.097 0.24 0.144v0c0.052-0.034 0.105-0.098 0.161-0.193 0.056-0.095 0.108-0.226 0.158-0.392v0c0.085-0.288 0.118-0.554 0.099-0.796-0.017-0.249-0.071-0.456-0.161-0.622v0c-0.152-0.17-0.266-0.301-0.344-0.393-0.077-0.092-0.136-0.165-0.175-0.219-0.042-0.047-0.063-0.081-0.064-0.103-0.007-0.023-0.006-0.051 0.003-0.082v0c0.025-0.083 0.067-0.144 0.127-0.182 0.062-0.044 0.134-0.054 0.218-0.03v0c0.026 0.008 0.051 0.029 0.075 0.064 0.033 0.031 0.075 0.074 0.128 0.132v0c0.367 0.456 0.799 0.856 1.297 1.197 0.502 0.35 1.09 0.625 1.762 0.823v0c0.781 0.231 1.383 0.269 1.805 0.115 0.426-0.146 0.709-0.456 0.849-0.93v0c0.076-0.256 0.068-0.526-0.022-0.81-0.086-0.276-0.258-0.577-0.517-0.905-0.267-0.322-0.626-0.676-1.076-1.059-0.449-0.39-1.003-0.825-1.662-1.305v0l0.246-0.408c0.871 0.612 1.571 1.153 2.101 1.623 0.53 0.47 0.937 0.896 1.22 1.279 0.276 0.388 0.44 0.75 0.494 1.086 0.052 0.343 0.027 0.687-0.075 1.033v0c-0.064 0.218-0.183 0.43-0.355 0.636-0.166 0.209-0.383 0.378-0.651 0.508-0.268 0.13-0.59 0.205-0.965 0.227-0.375 0.022-0.8-0.038-1.274-0.178v0c-0.237-0.07-0.477-0.165-0.72-0.285-0.238-0.112-0.466-0.238-0.682-0.379-0.223-0.142-0.434-0.288-0.634-0.438-0.2-0.149-0.376-0.295-0.528-0.438v0c0.047 0.313 0.023 0.63-0.072 0.951v0c-0.091 0.307-0.219 0.552-0.383 0.732z" fill="#ffffff" data-fill-palette-color="accent"></path>
                              <path d="M4.159 126.558c0-4.466 3.62-8.086 8.085-8.086 4.466 0 8.086 3.62 8.086 8.086 0 4.466-3.62 8.086-8.086 8.086-4.466 0-8.086-3.62-8.085-8.086z" fill="#ffffff" data-fill-palette-color="accent"></path>
                              <path d="M224.18 126.558c0-4.466 3.62-8.086 8.086-8.086 4.466 0 8.086 3.62 8.086 8.086 0 4.466-3.62 8.086-8.086 8.086-4.466 0-8.086-3.62-8.086-8.086z" fill="#ffffff" data-fill-palette-color="accent"></path>
                            </g>
                            <g id="text-1"></g>
                          </svg>
                        </g>
                      </svg>
                    </g>
                  </svg>
                </g>
                <defs></defs>
              </svg>
              <rect width="395.52" height="140.0065710864066" fill="none" stroke="none" visibility="hidden"></rect>
            </g>
          </svg>
        </g>
      </g>
    </g>
  </g>
  <rect width="238.5002855744126" height="61.07838507669712" x="286.23592526109655" y="170.4608202105091" rx="2.5" ry="2.5" fill="transparent" class="logo-element-hover-target"></rect>
  <rect width="12" height="12" x="117.24002529373365" y="124.99672354357048" rx="2.5" ry="2.5" fill="transparent" class="logo-element-hover-target"></rect>
</svg>
